<svg xmlns="http://www.w3.org/2000/svg" viewBox="0 0 394.21 797.39"><defs><style>.cls-1{fill:#161716}.cls-4{fill:#161612}.cls-6{fill:#171814}.cls-8{fill:#bc971a}.cls-11{fill:#383b24}.cls-12{fill:#0e0f11}.cls-13{fill:#c1bf56}.cls-14{fill:#101215}.cls-15{fill:#101213}.cls-16{fill:#191814}.cls-17{fill:#181a13}.cls-18{fill:#18191a}.cls-19{fill:#191a15}.cls-25{fill:#2a291e}.cls-26{fill:#2b291d}.cls-28{fill:#111314}.cls-29{fill:#111316}.cls-33{fill:#292c2e}.cls-37{fill:#2b291f}.cls-38{fill:#afbbc0}.cls-39{fill:#c7d2d7}.cls-40{fill:#9592a0}.cls-52{fill:#282b2d}.cls-57{fill:#27292d}.cls-65{fill:#a3acb2}.cls-67{fill:#454b52}.cls-69{fill:#1f2125}.cls-74{fill:#1f2225}.cls-80{fill:#1e1f1a}.cls-83{fill:#282c24}.cls-84{fill:#17191d}.cls-88{fill:#3d4851}.cls-90{fill:#9592a1}.cls-95{fill:#141618}.cls-98{fill:#bdbcd3}.cls-101{fill:#89989c}.cls-102{fill:#afbbbf}.cls-105{fill:#b3b2bc}.cls-108{fill:#222627}.cls-109{fill:#1d2021}.cls-110{fill:#252828}.cls-111{fill:#1f2424}.cls-115{fill:#16191b}.cls-116{fill:#1c1e19}.cls-119{fill:#b8b7cb}.cls-129{fill:#2a2a2e}.cls-131{fill:#66656e}.cls-136{fill:#212425}.cls-139{fill:#1b1d1f}.cls-140{fill:#252829}.cls-141{fill:#2c2f2e}.cls-142{fill:#2b2c2e}.cls-143{fill:#373c3e}.cls-145{fill:#2e3032}.cls-148{fill:#2b2927}.cls-155{fill:#1a1e1e}.cls-158{fill:#212324}.cls-188{fill:#576974}</style></defs><path class="cls-1" d="M62.52 151.8c3.18-1.19 6.51-.57 9.77-.74 2.06-.11 3.34-.46 3.48-3 .49-8.72 1.19-17.42 1.81-26.13 2.36-17.95 2-36.11 4-54.09.33-3 .8-5.9 1.2-8.84l8-.25-.07.06c0 .41-.06.82-.1 1.23-2 .34-4.22-1-5.93 1l-.21 4.74a37.67 37.67 0 00-.67 3.89c-1.41 19.76-2.7 39.53-4.18 59.28-2.85 38-5.86 76-8.66 114-.55 7.6-2.33 15.16-1.06 22.85l-2.14-1.81-.19 3.1c-1.39-2.78-.72-5.58-.09-8.38 2.14-.81.85-1.81.16-2.77-.1-3.13-.24-6.26.84-9.29.13 1 .27 2.08.58 4.43.61-3.34 1.1-5.33-.41-7.14 1.62-12.79.45-25.43-2.08-38-.24-2.13-.56-4.25-.69-6.39s-.73-3.76-3.47-3.67c-2.14.07-2.91-2-4-3.42-7.11-9.54-6.84-28.83.5-38 .89-1.12 1.61-2.61 3.41-2.59 4.23 2 8.61.64 12.93-.05zm12.08 13.15c.27-2.79.59-5.58.8-8.37.08-1.11.24-2.23-1.24-2.86-5.46-2.33-13.17 1-15.71 6.91-3.5 7.79-3.5 15.78-1.11 23.81 2.33 7.83 4.3 9 12.23 8.31 2.14-.18 2.88-1 3-3 .65-8.26 1.35-16.53 2.03-24.8zm-4.54 46.26l1.67-.1v-13.64a1.89 1.89 0 00-2.25-2c-1.21.12-1.52 1.05-1.36 2.19.65 4.5 1.29 9.03 1.94 13.55z"/><path d="M177.52 13.99c4.19-5 8.75-9.44 14.85-12.11 9.15-4 16.07-1.66 20.76 7.2 3.63 6.86 4.48 14.48 5.79 22 .15 5.8.36 11.61.43 17.41.09 6.46.06 12.91.09 19.37-2.94-.3-6 .92-8.82-.86 4.8.73 6.31-1.28 6.09-6.08-.39-8.31.23-16.68-.23-25-.5-9.29-1.56-18.61-6.48-26.86-3.59-6-8.88-7.88-15.33-5.44a26.73 26.73 0 00-6.95 3.86c-12.23 9.58-16.76 23.45-20.64 37.65-.34 1.26-.36 2.42 1.21 2.7s3.49.61 4.39-1.3a19 19 0 001-3.81c3-12.76 9.41-23.44 20.09-31.1 6.75-4.86 12.39-2.46 14.69 5.65a52 52 0 012.23 15.22c-.2 11.49-.07 23-.07 34.48l-2.29-.13c0-11.13.28-22.28 0-33.41-.14-5.78-.59-11.66-3.05-17.07-2.38-5.22-5.62-6.13-10.29-2.85-5.42 3.8-9.26 9-12.56 14.63l-2.69 4.9a4 4 0 00-1.18 2.92 3.55 3.55 0 00-1.06 2.91c-1 3.62-2.17 7.2-2.06 11-3.83-1.12-7.78-.73-11.68-.93a97.09 97.09 0 017-23.1l2.87-5.84 1.11-1.92z" fill="#822e17"/><path d="M315 100.82l.76.81c-5.3 3.15-2.7 8.23-3.08 12.58-.1 2.65-.1 5.31-.32 8-1.45 18.07-3.18 36.11-4.23 54.22-.83 14.59-2.23 29.16-4.44 43.62-2.07-2.26-.65-5.09-1.23-7.59.1-3 .1-6 .34-8.92 1.37-17 2.88-34.05 3.95-51.11 1.23-19.53 2.93-39 5.82-58.42 2.25 1.73-.57 5.3 2.43 6.81z" fill="#181a1a"/><path class="cls-4" d="M210.62 66.96c2.8 1.78 5.88.56 8.82.86l1.17-.12c8 .1 15.9 2.07 23.88.22l2.16 1 3.93.06.44.1h.46l13.93 1 2.82.65 3.45.18c17.32-1.31 30.2 8 42.84 17.92l-.06 2.1-1.77-1-2.1-1.08-16-11c-3.28-1.46-1.08 2.58-2.76 2.74-.12-1.3-.24-2.61-.35-3.91-1.32-1.58-3.22-1.56-5-1.79-16.66-2.14-33.38-3.33-50.16-3.93-15.92-.56-31.84-1.18-47.69-2.95 2.63-2.1 5.74-.63 8.59-1.14l11.14-.1 2.29.13z"/><path d="M312.68 114.21c.38-4.35-2.22-9.43 3.08-12.58 5.43 4.16 9.73 9.44 14.2 14.54s9.27 10.39 14.75 14.73c12.26 8.45 16.63 19.85 13.12 34.38-.43 1.76-1.05 4 .7 5.67 4.67 2.09 9.56.62 14.34.87l4.63 3.39-1.16 1.82-1.76-1.15-2.08-2a3.55 3.55 0 00-4.95 0 .52.52 0 01-.61.26l-3.46-1.14-5.4.07-3.55-.19c-3.35-1.82-6.93-.68-10.42-.8l-3.57-.18c-4-1.31-8-1.94-11.93.27h.1l-1.36-1.62.8-.75h12.88l2.5.1c2.32 1.89 5.06.7 7.59 1 3.41.46 5-.91 4.28-4.46-.4-5.46.29-10.87.93-16.27.32-2.74-.29-4.87-2.8-6.24-5.05-6.85-12-11.8-17.91-17.78-6.86-6.92-12.45-15-20-21.25-.81-1.17-1.65-1.07-1.84.28a52 52 0 00-.18 5.73c0 .67 0 1.34-.08 2-.3.47-.57.88-.84 1.3z" fill="#23241a"/><path class="cls-6" d="M103.66 59.76c5.3.36 10.63.56 15.91 1.14 2.9.32 4.17-.54 4.72-3.43.78-4.06 1.65-8.27 6.48-9.72a46.77 46.77 0 0110.95.86 8 8 0 014.79 8c-.31 4.94 1.64 7.25 6.54 7.14-2.17.61-4.7-.54-6.6 1.36-12.67-.33-25.28-1.5-37.87-2.93-1-2-3.53-.54-4.82-2zm36.33 2.53c3.94.86 4.59-.73 4.41-3.41a9.62 9.62 0 00-14-7.84c-3.38 1.81-3.87 5.41-3.7 8.61s3.34 1.86 5.24 2.12c2.97.39 5.96.4 8.05.52z"/><path d="M141.72 48.63a46.77 46.77 0 00-10.95-.86 1.55 1.55 0 01.18-1c1.22-1.9.52-4 .62-6 .06-1 .13-1.92.2-2.89 1-.87.85-2 .77-3.16 0-2-.25-4 1.15-5.74l1 2.05c-.36 2.64-.71 5.29-1.07 7.93-1.38 2.67-1.71 5.32.21 7.91 4.57.83 6.13-1 5.86-5.63-.68-11.27 3.53-20.76 11.68-28.45 5.25-5 10.45-4.58 15.79 0 2.51 2.17 3.08 5.95 6.5 7.17l-2.87 5.84c-.65-6.51-3.84-11.88-10-13.57s-9.64 3.66-12.92 8.18c-6.18 8.57-6.46 18.31-6.15 28.22z" fill="#ba9518"/><path class="cls-8" d="M134.68 31.06l-1-2.05c2.1-8.92 6.05-16.77 13.13-22.82 10.23-8.74 21.38-6.77 28.3 4.72.68 1.13 1.13 2.42 2.4 3.08l-2.76 4.1c-.61-6.85-4.84-11.17-10.66-13.66-6.25-2.68-11.67-.47-16.62 4.07-6.74 6.2-9.32 14.59-12.79 22.56z"/><path d="M246.65 68.93l-2.16-1c.06-.65 0-1.82.2-1.87 5.29-1.41 5.2-6.93 7.94-10.25 4.09-5 10.22-4 14.66 2.21.76 2.84-.37 6 1.32 8.66a7.55 7.55 0 013.07 4.25l-3.45-.18c.1-.71.11-1.39-.84-1.53-4.79-1.59-9.66-3-14.72-3.08-2.17-.05-5.59-1.45-6.02 2.79zm8-12.31c-1.38 1.88-2.85 3.73-1.9 6.31 2 1.82 4.71 1 7.05 1.71 1.8.54 4.82 1.69 5.52-1.17s0-6-3.25-7.49c-2.54-1.13-5.11-1.35-7.43.65z" fill="#2b1f18"/><path d="M312.69 89.95l1.77 1 .24 4.13c-.11 1.93-.52 3.87.3 5.75-3-1.51-.18-5.08-2.43-6.85z" fill="#2b2c24"/><path class="cls-11" d="M95.63 59.07a19 19 0 018 .69l.1.45-8.08-.26c0-.32-.01-.58-.02-.88zm-4.81-.31l-8 .25c2.59-2.15 5.3-.71 8-.25z"/><path class="cls-6" d="M95.63 59.07c0 .3 0 .59.05.88l-2 1h-2l-1-.84c0-.42.07-.83.1-1.24z"/><path class="cls-8" d="M131.57 40.8c-.1 2 .6 4.1-.62 6-.13-2.04-.54-4.1.62-6zm.97-6.05c.08 1.14.22 2.29-.77 3.16a3.83 3.83 0 01.77-3.16z"/><path class="cls-12" d="M168.63 755.82c-17.29-6-34.56-11.94-51.87-17.84-12.12-4.14-24.32-8.07-36.41-12.31-2.93-1-4.77-1-6.58 1.91-3.2 5.08-8.25 4.95-13.37 3.87-1.94-.41-3.81-1.1-5.71-1.66-14.65-4.95-29.23-10.13-44-14.75-5.11-1.6-7.83-4.44-8.88-9.46-4.23-20.09-.71-39.34 6.18-58.24.89-2.45 3.07-3.36 5.09-4.51l69.75-39.91c1-.57 1.91-1.29 2.86-1.94 21.35-11.78 42.13-24.54 62.8-37.45 6-3.76 11.29-5 18-2.41 7.87 3 16.09 5.11 24.15 7.61 3.27 2.26 4 .48 4-2.5v-14.94c1 7.8.89 15.58 1 23.37 0 2.4-.87 5 1 7.2v2a120.51 120.51 0 00-.12 33.61c0 .12.25.2.38.3 10.91 2.29 21.44 6 32.11 9.13 3.74 1.11 4.71.28 4.59-3.45-.38-12.13-.33-24.27-.71-36.41-.67-21.13-.33-42.3-.3-63.45 0-6.5-.26-12.74-2.81-19-3.37-8.25-2.88-8.45-12.19-8.78-5.27-1.87-10.7-.55-16.06-.86l-5.69.09c-1.82 1.27-1 3.2-1.21 4.88-.3 2.32.79 4.85-1 7l-1-.9c-1.56-2.88-4-5.38-4-8.94v-94.87c0-1.71.58-3.9-2.26-4.14-10.16-2.29-19.77-6.33-29.69-9.37a1.86 1.86 0 011.94-1.73c17.37 1.62 34.72 3.46 52.11 4.8 11.88.86 23.68 3.04 35.68 3.06h2.33c8.41 3.21 17.37 4.26 26 6.58 2.11.57 2.52-1 2.86-2.53l1 1-.06 3.81c-3.06 1.89-6.63 2.11-10 2.67s-4.19 2-4.39 5.19c-1.74 28.74-2.51 57.51-3.59 86.28-.17 4.67 0 9.6-2.19 13.68-3.41 6.26-3.08 12.74-2.75 19.37q.14 31 .23 61.92c0 2.47 1.17 3.45 3.41 4.09q26.65 7.59 53.26 15.35c1.5.44 3 .77 4.26-.33 3.63-3.11 7.61-2.43 11.81-1.53 15.66 3.36 30.68 8.89 46.05 13.23 3.66 1 4.7 4 5.17 7.16 1.28 8.71-.61 17.24-1.69 25.81-.25 2-.73 3.93-1.12 5.89-2.71 13.54-6.31 26.63-18.28 35.39-20.07 18.29-40.07 36.65-60.22 54.84-15 13.51-30.26 26.64-45.1 40.28-4.68 4.31-9.8 5.36-15.15 3.5-17.13-6-34.09-12.42-51.11-18.71-2.07-.76-3-2.46-3.49-4.53-.34-1.63-1.05-3.27-1-4.88.28-7.63-3.95-10.87-10.9-11.65a3.45 3.45 0 00-3.13-.92zm20-185c-7.75-2.4-15.48-4.9-23.27-7.17-3-.85-6.05-2.49-9.13-1a53.49 53.49 0 00-13.49 8.73c13.95 4.26 27.36 8.51 40.88 12.4 3.16.91 6.4 3.43 10 1a15.48 15.48 0 000-12l-1-1c-1.1-1.25-2.62-.82-4.01-.91zM75.54 702.71c-1.83 3.57-.2 7.57-1.42 11.24-1.55 4.67 0 7.07 5 8.67 22.26 7.21 44.38 14.84 66.56 22.31 10.54 3.55 21.07 7.13 31.64 10.58 1.39.45 3.74 2.21 3.87-1.35.17-4.46.27-8.91.39-13.37l3-15c1.88-5.49 3.4-11.16 5.77-16.43 1.7-3.78.48-4.67-2.89-5.69-21.46-6.51-42.87-13.19-64.29-19.82-13.33-4.13-26.68-8.17-40-12.43-3.25-1-4.43-.49-4.64 3.05-.37 6.12-1.17 12.22-1.79 18.33zM253.6 599.85c0-1.67-.06-3.33-.08-5-.29-24-.63-47.92-.81-71.89 0-3.44-1-4.55-4.42-3.54a9.74 9.74 0 01-8.14-1.39c-5.32-3.66-4.69-.07-4.68 3.32q.13 42.72.21 85.44a150.47 150.47 0 00.68 16.43c.34 3 .91 3.51 3.48 1.86 4.47-2.88 9.08-5.55 13.63-8.31 1.36 1.5-.93 2-.86 3.17-4.92 3.1-9.88 6.14-14.73 9.34a7.11 7.11 0 01-6.56.86c-11-3.33-22-6.61-33.11-9.56-3.68-1-4.65-2.81-4.49-6.36.26-5.89.07-11.81.07-18.56-37.85 24.67-75.57 48.15-114.17 71.77 2.27.76 3.51 1.21 4.76 1.6 32 9.91 64.06 19.42 95.82 30 9.6 3.19 16.3 2.39 24.69-3.87 32.57-24.3 65.62-48 98-72.48 3-2.24 6.13-4.32 8.71-7.71l-50.11-14.9c-2.55-2.52-5.19-2.64-7.89-.22zm3-91c1.08-.83 1-2 .91-3.16.43-14.12.72-28.25 1.33-42.36.74-16.91 1.72-33.82 2.68-50.72.17-2.91-1-4.17-3.78-4.72-5-1-10-2.28-15-3.5-6.94-1.68-6.94-1.7-7 5.25-.08 15 .24 30-.34 44.92-.47 12.13-1.41 24.21.24 36.3 1.16 8.56 3.59 16.59 10.11 22.76 3.87 3.66 7 3.05 9.29-1.67.46-1.01 1.01-2.04 1.54-3.07zm-67-73c-.25 12.92.3 28.22.85 43.52.12 3.5 1.19 4.6 4.63 4.56 10.32-.15 20.65 0 31 0 6.39 0 6.38 0 6.41-6.64.08-14-.33-28 .46-42 .55-9.83.27-19.63.6-29.43.07-2.28-.57-3.85-3.24-4.05q-18.37-1.39-36.74-3c-3.16-.27-4 1.11-4 4.06.08 10.25.01 20.42.01 32.97zm-5.19 309.38c-.88 3.59 1.87 5.47 6.42 6.72 6.88 1.88 13.57 4.43 20.35 6.67q12.52 4.14 25.07 8.22c1.35.44 3 1.36 3.33-1.23a163.44 163.44 0 017.08-31.51c.6-1.75.19-2.7-1.76-3.27q-25.57-7.47-51.1-15.13c-2-.6-3.22-.38-3.82 1.69a141.06 141.06 0 00-5.57 27.84zM2.7 686.94c0 9.79.08 9.57 8.07 12 13.92 4.17 27.76 8.58 41.56 13.13 2.78.91 3.39 0 3.31-2.31-.41-10.76 2.16-21 5-31.28.52-1.88.46-3-1.84-3.64q-24.11-6.98-48.12-14.21c-3.08-.94-4.3 0-4.91 2.83a184.41 184.41 0 00-3.07 23.48zm214.91 3a2.83 2.83 0 00-1.24.24c-7.86 5.52-16.24 10.42-22.37 18.07-2 2.49-.68 3.72 2 4.53 16.35 5 32.69 10 49 15.09 2.46.77 4 .34 5.66-1.52 5.59-6.43 12.91-10.9 19.16-16.6.73-.66 2-1 1.89-2.12-.13-1.44-1.62-1.39-2.68-1.72l-39.84-12.28c-3.78-1.23-7.59-2.44-11.58-3.7zm-130.42-39c-.67-1.59-2.39-1.58-3.7-2-13.34-4.08-26.85-7.65-40-12.25-6.52-2.28-11.86-1.67-17.41 1.89a102 102 0 01-10 5.52c-4 2-6.24 5.14-7.48 9.41-.72 2.5.2 3.22 2.26 3.83q24.32 7.29 48.65 14.63c2.11.65 3.62.57 4.39-1.66 2.09-6 7.27-8.82 12.32-11.75 3-1.75 6-3.62 9-5.43.79-.5 1.75-.91 1.97-2.16zm215.55 31.35c-17.12-5.1-33.31-9.86-49.45-14.79a7.67 7.67 0 00-7.45 1.12c-7.37 5.38-14.87 10.59-22.29 15.91-.91.65-2.24 1.36-2.06 2.61s1.7 1.3 2.78 1.64l32.27 10.16c10.64 3.35 21.17 8.8 30.61-3.23 3.97-5.03 9.87-8.57 15.59-13.39zM38.29 632.1c17.36 5.24 33.39 10 49.4 14.94 2.63.8 5.22 1.4 7.7-.11 9.55-5.81 19.06-11.71 29.38-18.06-12.43-3.73-24.2-6.57-35.43-10.84-11.54-4.38-21.88-5.36-32.25 2.92-5.34 4.26-11.82 7.09-18.8 11.15zm119.31-24c-.81-.7-1-1-1.28-1.1q-23.32-7.32-46.65-14.62a3.73 3.73 0 00-3.31.32c-8.74 5.1-17.53 10.12-26.24 15.27-1 .61-2.92.93-2.66 2.57s2.09 1.46 3.29 1.83c14.94 4.58 29.91 9 44.84 13.65a5.19 5.19 0 004.7-.55c8.95-5.72 17.91-11.4 27.31-17.38zm94.63 55.73c17.74 5.34 34.1 10.22 50.42 15.25a4.88 4.88 0 005.36-1.1c5.73-5 11.65-9.8 17.46-14.73.85-.73 2.11-1.7 2.12-2.57 0-1.63-1.83-1.57-3-1.94-14.25-4.45-28.51-8.85-42.76-13.3-1.48-.46-2.91-.86-4.28.13-8.14 5.85-16.31 11.75-25.32 18.25zm125.29-26.2v-5c0-2.16.11-4.56-2.39-5.51s-4 .75-5.63 2.26c-3.65 3.38-7.34 6.73-11.13 10q-22.15 18.85-44.4 37.6c-15.23 12.79-30.59 25.43-45.84 38.21-9.14 7.67-19 14.83-21.13 27.88-.78 4.73-2 9.39-3 14.09a153.29 153.29 0 00-3.34 31.08c0 2.27.23 5.1 2.56 6.11s4.52-.38 6.32-2c8.6-7.55 17.21-15.08 25.73-22.73 11-9.86 21.71-20 32.87-29.7 18.82-16.29 36.57-33.8 55.17-50.29a21.8 21.8 0 005.63-8.72c5.47-13.94 7.19-28.59 8.58-43.28zm-95 4.66c16.35 5.11 31.7 9.87 47 14.75a4 4 0 004.43-1c5.76-5 11.63-9.81 17.47-14.69 2.17-1.82 1.77-2.7-.91-3.49-13.67-4.06-27.29-8.25-40.92-12.43-1.82-.56-3.69-.91-5.29.18a233.14 233.14 0 00-21.77 16.66zm-95.27-53.81l-47-14.23a4.6 4.6 0 00-3.86.3c-7.29 4.33-14.59 8.63-21.8 13.09-1.48.92-2.81 2.34.31 3.29 14.78 4.5 29.53 9.09 44.3 13.63a4.63 4.63 0 003.89-.12c7.78-5 15.83-9.57 24.17-15.98zm51.16 186.37c.44-4.07-2-4.55-4.23-5.3l-42-14c-8.06-2.7-8.06-2.7-7.58 5.35.06 1 0 2 0 3 .52 6.84 2.42 12.53 10.39 14 3.06.57 6 2 8.92 3.1q15.86 5.91 31.68 11.85c1.23.46 3.08 1.29 2.63-1.08a43.24 43.24 0 01.19-16.92zM71.19 725.48c-3.85 3.4-5.56 1.24-6.74-2.13a29.09 29.09 0 01-1.81-8.73 82.73 82.73 0 013.62-27.51c3.07-9.77 6.48-19.64 16.38-25.29 8.94-5.1 17.71-10.5 26.45-16q34.63-21.62 69.16-43.4c4.63-2.91 9.19-5.91 13.77-8.88 1.24-.81 2.08-2.14 1.3-3.38-.9-1.41-2-.08-2.93.49-5.87 3.77-11.67 7.62-17.55 11.37-30.26 19.32-60.53 38.61-91.43 56.87-7.78 4.61-14.81 9.5-17.23 18.84-1 3.69-2.11 7.34-3 11-2.94 11.92-3.86 23.93-.37 35.88 1.6 5.49 6.52 6.02 10.38.87zM369.91 625.3c-12-3.61-23-6.66-33.88-10.23-8.36-2.76-16-3.05-22.9 3.41-1 1-3.06 1.29-2.75 3.1.27 1.55 2.14 1.42 3.33 1.79 13 4.06 26 8 39.06 12 1.64.5 3.35.82 4.79-.29 3.85-2.94 7.69-6.05 12.35-9.78zM6.1 700.52c-1.28-.34-1.81-.13-2.12.6-.85 2 2.32 8.92 4.53 9.68 7.17 2.45 14.38 4.78 21.55 7.25 8.16 2.81 16.28 5.73 24.44 8.55.86.29 1.9.94 2.78.07 1.25-1.23-1.59-10.2-3.43-10.79q-20.61-6.56-41.25-13.07c-2.37-.75-4.69-1.65-6.5-2.29zm237.44-184.25c-6.65-7.39-9.3-16.39-10.72-25.87-.34-2.25-.82-3.66-3.56-3.65-11.81 0-23.62-.08-35.44-.11-1.29 0-2.62-.12-3.18 1.64-.85 2.63.32 9.46 2.19 11.78-.14-7.48-.13-7.54 7.81-7.31 8.47.24 17 .77 25.42.85 3.43 0 4.37 1.21 4.77 4.57.97 8.07 4.02 15.07 12.71 18.1zm-68.87-125c7.81 4.83 16.7 5 25.33 5.48 19.07 1.16 38 2.69 56.47 8.17 4.34 1.29 8.2 0 13.45-1.85-32.08-8.68-63.92-8.11-95.25-11.8zM75.79 673.69c-3.6 4.29-4.81 8.26-6 12.14-3.32 11.2-5.54 22.54-3.23 34.29.19 1 .07 2.23 1.39 2.25 1 0 1.79-.92 2.14-1.86a13.27 13.27 0 00.54-2.9c.95-7.39 1.94-14.76 2.81-22.16.83-6.82 1.49-13.63 2.35-21.76z"/><path class="cls-13" d="M168.63 755.82a3.45 3.45 0 013.13.92 2.94 2.94 0 01-3.13-.92z"/><path class="cls-14" d="M74.65 493.86a14.77 14.77 0 002.39-7.93c.84-22 1.81-43.91 2.74-65.86 1.54-9.56.74-19.26 1.6-28.87.37-4.14 0-8.36.56-12.47.72-5.46.41-10.51-3.24-14.94 0-1.05-.08-2.14.9-2.89 1.62 4.43 4.67 6 9.46 6.24 8.79.48 17.58.58 26.37.67 2.64.47.72-2.46 2.15-2.89 6.09 6.62 9.05 6.84 14.1 1.06l3-4 1 2.16q-1.54 2.53-3.1 5l-1 1.76c-1.06.71-1 1.88-1.19 3-.92-.43-1.14-2.62-2.83-1.12a10.65 10.65 0 01-1.48.17c-6.59-.18-6.51-.17-7.51 6.73q-3.6 24.81-7.34 49.61-5.31 34.85-10.74 69.66c-1 .83-.91 2-.86 3.08v2.88c-1.37 1.11-1 2.66-1 4.1-.39 5.49 4.32 7.19 7.37 10.49a16.34 16.34 0 001.75-6.58c1.67 2.59.38 5.52.92 8.25 0 4.68-3.36 2.69-5.63 2.89-5.14 1.34-.79 6.1-3.27 8.71-.11-2.17-.21-4.13-.3-6.09-.31-1-.7-2-1.94-1.92-5.85.14-11.92 1.23-16.48-5.94-.69 9-.76 16.38-2 23.54-.93 5.56 1.28 7.45 6.14 8.43 10.59 2.14 21 5 31.35 8.11l1.07 1.08c0 .31-.06.63-.08 1-2.88.35-5.49-.83-8.17-1.52-7.79-2-15.44-4.56-23.45-5.61a7.85 7.85 0 00-4.3-1.15l.15.07-4.16-2 .09.06c-1.67-1.57-1.38-3.57-1.22-5.56.61-7.59 1.27-15.19 1.73-22.79.11-1.82 1.16-3.89-.65-5.53l-1-1-.09-.93v-18.26c0-.49-.39-.85-.87-.24a2.3 2.3 0 00-.23.44c-.76-.92-.65-2.03-.71-3.1zm4 10.22c-.16 8-.16 8 9.31 7.84a29.06 29.06 0 013.49 0c3.57.37 4.76-1.14 5.26-4.74 2.62-18.78 5.59-37.51 8.43-56.26 3.83-25.33 7.55-50.67 11.58-76 .7-4.43-.86-5.1-4.63-4.89-8 .45-16 .69-23.95.85-2.54.05-3.48.93-3.55 3.51-.19 7.15-.64 14.3-1 21.44-1.57 35.56-3.18 71.14-4.9 108.25zm2.27 10.61c5.67 7.47 13.41 9.4 21.65 6.26-4.6-9.92-13.43-5.09-21.61-6.26z"/><path class="cls-15" d="M67.61 267.09l.19-3.1 2.14 1.81 8.21.23 2.51.92v1.94h-5.51c5 3.47 8.93 7.88 15.23 8.31 15.1 1 30.17 2.43 45.25 3.68 4.27 2 8.77.81 13.17.94l1.82.13c5 1.9 10.17.78 15.28.85l.36-.12.35.17c4.1 2.35 8.64.36 12.88 1.33l-.88.76-9.28.13-3.72-.2c-3.65-1.85-7.52-.74-11.31-.79l-4.68-.22c-3.66-1.81-7.52-.76-11.31-.77l-34.81-2c14.75 8.62 29.64 16.35 44.13 24.82 2.89 2.6 2.63-1.14 3.86-1.91.83 5.94-1.13 12.06 1.14 17.92l.08 3.81c0 2.16 0 4.33-.14 6.48-.45 4.89 1.18 9.92-.93 14.7l-.15-3.63c-.14-6.45 1.19-13-.79-19.35-.21-3.65-.37-7.3-.63-10.94-.09-1.3.22-3.05-1-3.72-6.4-3.56-12.92-6.92-19.13-10.21v24.86a4.64 4.64 0 001.75 3.93 2.74 2.74 0 01-2.2 1.15c-4.29-1.25-7 1.27-9.67 4l-1.24-1.21c.09-.83 1.6-1.92.44-2.33-1.66-.59-2.79.85-3.56 2.3-2.42 3.81-6.09 2.44-9.46 2.27-5.78.28-11.66-1.25-17.32 1h.07l-4.26-1c1-2.49-1.25-4-1.82-6.06a4.73 4.73 0 000-6c-.06-.57-.11-1.14-.17-1.71 0-2.13.8-4.39-.86-6.29a.71.71 0 01-.1-.83c-.08-2.09.75-4.31-.9-6.17l-.15-1.7c.49-2.08-.56-4.4 1-6.31l.17 1.88c.06 1.74-.58 3.61.88 5.1.06.93.11 1.85.16 2.77 0 1.46-.45 3 .77 4.2l.19 2.94c.07 1.74-.59 3.61.9 5.09l.1 1.87c.06 1.74-.59 3.61.86 5.12l.13 1.89c0 1.19-.17 2.41 1.15 3.09 6-.34 11.92-1.07 17.86-.91 5.1.13 6.1-2 5.76-6.53q-1.24-16.6-1.78-33.26c-.11-3.51-1.74-5-4.4-6.94-7.12-5.13-16.28-4.27-23.59-8.68-2.18-1.31-1.65 1.1-1.94 2.17-.36 1.74.45 3.73-1.12 5.21a.58.58 0 01-.07-.79c-.06-2.11.78-4.35-.92-6.21-.44-5.64-6.62-6.01-8.99-9.88zm45.26 62.38c4.28-2.56 7.94-5.12 12.71-5 1.85.06 2.05-1.94 2-3.48-.24-4.14-.72-8.27-.82-12.41-.28-12.19-.23-12.2-11.09-17.2-.3-.14-.6-.29-.89-.45-2.51-1.37-3.28-.28-3.19 2.19.41 11.94.82 23.84 1.28 36.35z"/><path class="cls-16" d="M74.65 493.86c.06 1.07 0 2.18.84 3l-.66 13.13c0 1.64 0 3.28-.07 4.92s-.08 3.3-.11 5l-.09 1.57a18.69 18.69 0 00-.88 7.42l-.12 1.61a17.14 17.14 0 00-.87 7.38l-.11 2.49c-.93 3.56-1.46 7.12 0 10.67.76 1.62 1.65 3.09 3.78 3a3.93 3.93 0 003.3 1c11.78 3.38 23.53 6.88 35.53 9.44 5.7 1.22 11.47 1.9 17.27.8 2.06-.39 5.18-.64 5-3.15-.24-3.08-3.34 0-4.83-1.15-4.86-2.09-10-.4-14.92-.94l-1.07-1.08 17.88-.13.32.24c2.4 1.53 3.77 1.14 3.67-2l.32-.35c2.95 5.8 1.6 9.18-4.48 10.71a38.8 38.8 0 01-16.34.11c-14.09-2.48-27.65-7.13-41.52-10.53-5-1.23-7.49-4.63-7.06-9.92q1.91-23.1 3.81-46.18c.16-2 .27-4 .41-6z"/><path class="cls-17" d="M108.73 521.13c-.54-2.73.75-5.66-.92-8.25.43-3.28.81-6.56 1.3-9.83 2.83-18.66 5.59-37.33 8.55-56 1.55-9.77 2.34-19.68 4.92-29.28.14 1-.17 2.11.89 2.79.11.15.21.3.33.44l-.69 8.72c-.2 1.61-.39 3.22-.59 4.83-1.08 2.21-1 4.59-1.05 7q-4.41 28-8.78 56.06c-.83 5.4-1.42 10.84-2.12 16.27q-.91 3.62-1.84 7.25z"/><path class="cls-18" d="M196.62 581.86c-1.83-2.19-.93-4.8-1-7.2-.13-7.79-.05-15.57-1-23.37v14.94c0 3-.71 4.76-4 2.5 3.5.66 3.14-1.65 3.13-3.91q-.13-29-.16-58c1.76-2.12.67-4.65 1-7 .21-1.68-.61-3.61 1.21-4.89-.94 9.13 1.07 18.18.73 27.29-.28 7.6-1.26 15.26-.66 22.8 1 12.34.54 24.61.75 36.84z"/><path class="cls-16" d="M99.53 526.63c.09 2 .19 3.92.3 6.09 2.48-2.61-1.87-7.37 3.27-8.71a4.12 4.12 0 00-.42.84c-2.12 5.11-1.15 10.52-1.47 15.79 0 .34.91.74 1.4 1.1 10.38 4 20.77 8 31.12 12 1.82.71 3.86 1.14 5.11 2.89l-.32.35-3.67 2-.32-.24c1.38-2.85-1.44-2.43-2.51-2.85-9.85-3.84-19.78-7.5-29.68-11.24-1.79-.68-4.05-.92-3.84-3.72.36-4.77-.3-9.6 1.03-14.3z"/><path class="cls-19" d="M82.68 327.97c.57 2 2.78 3.57 1.82 6.06l-1.42-2.53a18.13 18.13 0 00-3.57 8.13c-2.67 7.09-1.51 14.16.09 21.23-1 .75-.89 1.84-.9 2.89-5.55-11.12-3.81-26.75 3.98-35.78zm-1.13-29.05c-1.57 1.91-.52 4.23-1 6.31-.31-.78-.63-1.55-.94-2.32v-1a8.54 8.54 0 00-.73-5.24q-.58-6.37-1.18-12.75c1.57-1.48.76-3.47 1.12-5.21 1.65 6.64 2.21 13.43 2.73 20.21z"/><path d="M102.61 541.75c-.49-.36-1.42-.76-1.4-1.1.32-5.27-.65-10.68 1.47-15.79q-.03 8.44-.07 16.89z" fill="#b4b279"/><path class="cls-19" d="M82.72 321.93a4.73 4.73 0 010 6c-.01-2 0-4 0-6zm-1.03-8c1.66 1.9.81 4.16.86 6.29a12.65 12.65 0 01-.86-6.29zm-1-7c1.65 1.86.82 4.08.9 6.17a12.53 12.53 0 01-.9-6.17z"/><path class="cls-15" d="M68.69 243.94c1.51 1.81 1 3.8.41 7.14-.31-2.35-.45-3.39-.58-4.43.06-.9.11-1.8.17-2.71z"/><path class="cls-19" d="M76.66 276.93c1.7 1.86.86 4.1.92 6.21a12.24 12.24 0 01-.92-6.21z"/><path class="cls-13" d="M78.83 296.68a8.54 8.54 0 01.73 5.24c-1.35-1.59-1.01-3.42-.73-5.24z"/><path class="cls-15" d="M67.68 255.94c.69 1 2 2-.16 2.77.06-.92.11-1.85.16-2.77z"/><path d="M368.68 548.81c.27 2.8.49 5.6.81 8.4.23 1.95-.73 3.07-2.3 4-6.57 3.85-13.11 7.75-19.66 11.63l-1-1v-.83l1-1.12c2.27-1.89 1.72-4.55 1.75-6.94.16-13.15.16-26.3.32-39.44.06-4.31 0-8.73 3.79-11.9.4.43.79.87 1.18 1.3v1c-2.25 2.6-2.2 5.79-2.25 8.94-.18 12.91-.36 25.83-.45 38.74 0 1.54-.73 3.26.74 4.94l13.8-7.73c2.82-2.85-.56-7.17 2.27-9.99z" fill="#212020"/><path d="M285.48 563.85c4.57-4.23 10.64-3.57 16.08-4.94l39.69-1.17c.7.26 1.81.17 1.65 1.28-.05.37-1 .62-1.51.92-16.52 1.34-33.19.38-49.65 3-2 0-3.16.69-2.19 2.94-3.34-.62-2.64 2.78-4.05 4.08 0-1.5-.07-3-.1-4.49.01-.55.06-1.09.08-1.62z" fill="#1d1c13"/><path d="M368.68 548.81c-2.83 2.86.55 7.14-2.3 10a345.13 345.13 0 00-1.82-36.93c.37-3.4-.59-6.66-1.06-10 .37-.73.74-1.45 1.1-2.18l1.6 2.34a212.26 212.26 0 012.48 36.77z" fill="#28281d"/><path d="M346.52 571.84l1 1-.27.21h-40.1c-5.27 0-10.54.13-15.74-1 2.88-.8 6 .65 8.79-.84a4.09 4.09 0 00.51-.51l4.87.28c1.53 1.44 3.45.91 5.21.92 11.91-.03 23.82-.05 35.73-.06z" fill="#1d1e1c"/><path class="cls-25" d="M307.15 572.99h39.76c-6.39 1.62-12.9.73-19.35.69-6.8-.05-13.64.44-20.41-.69z"/><path class="cls-26" d="M285.5 569.95c1.41-1.3.71-4.7 4.05-4.08v.87c-.73.31-1.9-.2-2.09 1.12 3.75 3.71 8.51 1.47 12.77 2.17.16.2.32.4.47.61a4.09 4.09 0 01-.51.51c-3.56.16-7.22-1.23-10.65.71-1.85.43-3.31.05-4.04-1.91z"/><path d="M289.55 571.86c3.43-1.94 7.09-.55 10.65-.71-2.82 1.49-5.91 0-8.79.84z" fill="#040301"/><path class="cls-26" d="M285.41 565.45c0 1.5.06 3 .1 4.49-1.63-1.46-1.03-2.97-.1-4.49z"/><path class="cls-28" d="M334.54 340.91a4.83 4.83 0 011.87-3c.73-1 1.47-2 2.21-3 .35 4 2.78 5.37 6.57 5.65 6.63.49 13.22 1.33 19.83 2.06 3.15.35 4.39-.42 4-4.11q-6.45-60.72-12.49-121.48c-.41-4.11-1.92-5.92-6.1-6-5-.11-10 .28-14.89-1.06-4.87-2.46-10.06-.08-15-1v-1l3.11-1h-.05c3 2.07 6.27.73 9.42.95 6.89-.26 13.71.58 20.55 1.19 2 2.2 4.69-.31 6.84 1 4.62 5.86 6.79 6.25 12.34 2.24l2.73-2.32c.42.74.83 1.49 1.25 2.24v-.14a2.72 2.72 0 00-1.15 3.07c1.45 6.19.54 12.54 1.39 18.77.68 5 1.44 10.12-.41 15.1-.69-9.94-1.36-19.88-2.07-29.82-.1-1.32.13-3.82-2.24-2.16-4 2.85-8.07 2.23-12.28.66-.76 2.58-.42 4.9-.18 7.19 2.23 20.95 4.52 41.89 6.71 62.84 1.76 16.83 3.4 33.67 5.11 50.5.11 1.07.44 3.21 1.64 2.08 2.78-2.63 7.08-2.82 9.23-6.22v-7.76a29.35 29.35 0 011.07 9.59c0 2.2.5 4 3.21 4a3.29 3.29 0 012.77 2.12c-.28 1 1.08 2.05-.09 3-4.8-4.94-7.89-5.41-12.23-1.53a56.77 56.77 0 00-4.78 5.46l-2-.94c.22-1.63.11-3.05-2.1-3a203.45 203.45 0 01-28.82-3c-1.19-2.45-3.27-.95-4.97-1.17z"/><path class="cls-29" d="M364.6 509.72c-.36.73-.73 1.45-1.1 2.18l-.74-.23c-3.06-1.84-5.51.36-8.16 1.24-.39-.43-.78-.87-1.18-1.3 1.12-.83 2.23-1.66 3.46-2.56-2.11-.82-3.68.52-5.41.81-1.86-.53-2.16 2.39-4 1.81l10.52-80.41c2.14-16.28 4.25-32.56 6.55-48.82.56-4-.46-5.78-4.68-6-5.12-.28-10.22-1.09-15.32-1.66-1.55-1.35-3.39-.76-5.13-.78h-3.56c-2.33 2-.9 4.65-1.21 7h.05c-.81-3.43-3.78-7.36 2.15-9.22l22.72 2.21c3.49 1.47 6.82 2.27 9-2.06a1.24 1.24 0 01.15.8c-.17 1.2-.2 2.37 1 3.16 4.13 6.4 5 6.75 11.57 4.8l1.53 1.4v-.08c-2 .62-2.08 2.22-2.25 3.94-.29 2.92-.79 5.81-1.2 8.71a3.33 3.33 0 01-.7-.37c-.1-.08-.09-.3-.13-.46.61-5 1.78-10.43-6.51-9.25-.53.08-1.23-.48-1.74-.9-2.46-2-3.32-1.06-3.65 1.72q-2.46 20.24-5.07 40.45c-2.17 16.59-4.47 33.16-6.66 49.75-1.26 9.53-2.39 19.08-3.62 28.62-.15 1.18-.46 2.93 1.24 2.33 2.67-.95 5.72.32 8.11-1.65 1.62-1.79.79-4 1-6h1c1.2 3.22-2.68 7 1.1 10z"/><path d="M378.46 393.82c0 .16 0 .38.13.46a3.33 3.33 0 00.7.37c.41-2.9.91-5.79 1.2-8.71.17-1.72.27-3.32 2.25-3.94a77.08 77.08 0 00-2.26 14.49 32.48 32.48 0 00-1.66 10.34l-12.22 76.74c-.23 1.46-.63 2.89-.95 4.34-1.85 1.86-1 4.13-1 6.28a.47.47 0 01-.1.69l-2 4c0-1.68 0-3.35-.05-5 0-.65.05-1.3.08-2 1.47-1.47.84-3.32.91-5a14.86 14.86 0 01.07-1.49c3-20 5.82-40 9.25-59.87 1.8-10.6 2.6-21.35 5.65-31.7z" fill="#1a1d17"/><path d="M376.54 248.93c1.85-5 1.09-10.07.41-15.1-.85-6.23.06-12.58-1.39-18.77a2.72 2.72 0 011.15-3.07l.9 12q.71 9.92 1.39 19.84c.19 6.55.1 13.11 1.45 19.57.12 14.56 1.65 29 2.65 43.52.4 5.75-.26 11.58 1.27 17.24.83 5.23-1.31 10.9 2.37 15.7-2.71 0-3.22-1.79-3.21-4a29.35 29.35 0 00-1.07-9.59v7.76c-1.72-3.23-.63-6.72-.93-10.09 2-4.48.54-9.06-.09-13.62v8.76c-1.88-4.45-.74-9.16-1.08-13.73-1.39-18.82-2.57-37.62-3.82-56.42z" fill="#1b1e1e"/><path d="M382.72 382.08l-1.53-1.4a3 3 0 01.37-.74c8.14-6.23 12.4-20.87 9.05-31.09l-1.2-3.89c1.17-1-.19-2 .09-3 1.79.95 2.32 2.76 3 4.45 4.51 11.52-.29 29.01-9.78 35.67z" fill="#29281d"/><path class="cls-33" d="M362.55 498.88l2-4c.47 4.7-2.23 9.2-.91 14-3.77-2.99.11-6.78-1.09-10zm2.11-4.69c0-2.15-.86-4.42 1-6.28a11.7 11.7 0 01-1 6.28z"/><path d="M376.69 212.13c-.42-.75-.83-1.5-1.25-2.24 2.75-4 3.61-8.66 4.91-13.18.21 1.16.09 2.45 1.24 3.25.1 4.48-2.81 7.93-4.12 11.92a1.21 1.21 0 01-.78.25z" fill="#292827"/><path d="M381.59 199.96c-1.15-.8-1-2.09-1.23-3.24v-9.53c.21-1.14.07-2.4 1.16-3.23a28.46 28.46 0 01.07 16z" fill="#1f1e15"/><path d="M381.52 183.96c-1.09.83-.95 2.09-1.16 3.23a3.42 3.42 0 00-.72-.35c0-3.64-1.42-6.8-3.3-9.81l1.16-1.82a12.66 12.66 0 014.02 8.75z" fill="#2b2823"/><path class="cls-37" d="M372.87 171.82c-4.78-.25-9.67 1.22-14.34-.87 4.76.53 9.64-.77 14.34.87z"/><path class="cls-38" d="M78.15 266.03l-8.21-.23c-1.27-7.69.51-15.25 1.06-22.85 2.8-38 5.81-76 8.66-114 1.48-19.75 2.77-39.52 4.18-59.28a37.67 37.67 0 01.67-3.89c8 3.79 16.82 2.87 25.26 4.09 10.8 1.56 21.71 2.37 32.58 3.52 11.19 1.19 22.36 2.48 33.57 3.55 9.06.86 18.16 1.44 27.24 2.18q23.26 1.89 46.52 3.85c10.39.89 20.79 1.71 31.15 2.88 6.83.78 7.74.36 8.88-6.2.1-.59.65-1.1 1-1.65l-.09 7-.21 1.53a20.94 20.94 0 00-.86 8.43c0 .85-.09 1.69-.13 2.54a25.32 25.32 0 00-.83 9.45l-.16 3.51c-1 4.45-.94 9-.83 13.48-.07.92-.13 1.84-.2 2.76-1 3-.89 6.14-.81 9.25l-.17 4.54a28 28 0 00-.89 9.47c-.15 1-.36 2-.44 2.94-2.21 27.3-4.37 54.61-6.64 81.9-1.2 14.38-2.61 28.75-3.93 43.12-.18 3.45-1.61 4.79-5.36 4.26-5.72-.81-11.53-.95-17.3-1.38a30.87 30.87 0 00-10.31-.92.6.6 0 00-.76 0 30.7 30.7 0 00-10.24-.94l-1.53-.09c-3.42-1.11-6.95-1-10.48-1a.42.42 0 00-.63-.07c-11-1.53-22-2.47-33.08-3.05l-4.27-.91c-2.36-1.65-5-.59-7.5-.79-3.48-.16-7-.25-10.43-.5-17.24-1.24-34.42-3.25-51.72-3.74-4.05-1.09-8.18-.85-12.3-.72l-7-.15-1.71-.14-3.3-.89c-2.63-1.85-5.62-.63-8.45-.86zm130.59-152.35a30.71 30.71 0 00-13.73-5.52 66.87 66.87 0 01-18.72-6.33c-13.39-6.69-27.09-6.4-40.24.81-28.51 15.61-38.26 41.11-36.81 72 1.34 28.64 14.9 49.44 41.83 60.07 17.94 7.09 36.62 5.23 55.12 1.6 9.14-1.78 16.05-6.9 21.44-14.29 9.16-10.31 17.16-21.24 19-35.48a112.42 112.42 0 00-1.67-36.77c-3.25-16.01-12.77-27.48-26.22-36.09z"/><path class="cls-39" d="M290.7 78c-.34.55-.89 1.06-1 1.65-1.14 6.56-2.05 7-8.88 6.2-10.36-1.17-20.76-2-31.15-2.88q-23.25-2-46.52-3.85c-9.08-.74-18.18-1.32-27.24-2.18-11.21-1.07-22.38-2.36-33.57-3.55-10.87-1.15-21.78-2-32.58-3.52-8.44-1.22-17.24-.3-25.26-4.09l.21-4.74 6.9-.14h2a74.08 74.08 0 0014.93 1.23c12.59 1.43 25.2 2.6 37.87 2.93h.05c14 1.76 28 2.58 42.09 3 15.85 1.77 31.77 2.39 47.69 2.95 16.78.6 33.5 1.79 50.16 3.93 1.79.23 3.69.21 5 1.79z"/><path class="cls-40" d="M74.6 164.95c-.68 8.27-1.38 16.54-2 24.82-.15 2-.89 2.8-3 3-7.93.67-9.9-.48-12.23-8.31-2.39-8-2.39-16 1.11-23.81 2.5 5.74 7.76 7.14 16.12 4.3z"/><path d="M74.6 164.95c-8.36 2.84-13.62 1.44-16.15-4.32 2.54-5.9 10.25-9.24 15.71-6.91 1.48.63 1.32 1.75 1.24 2.86-.21 2.79-.53 5.58-.8 8.37z" fill="#b1afba"/><path d="M70.06 211.21c-.65-4.52-1.29-9.05-2-13.57-.16-1.14.15-2.07 1.36-2.19a1.89 1.89 0 012.25 2v13.64z" fill="#525a63"/><path d="M62.52 151.8h12.82c-4.32.69-8.7 2.05-12.93.05z" fill="#040300"/><path class="cls-11" d="M91.62 60.9l-6.9.14c1.71-2 4-.65 5.93-1z"/><path d="M210.61 66.95c0-11.49-.13-23 .07-34.48a52 52 0 00-2.27-15.22c-2.3-8.11-7.94-10.51-14.69-5.65-10.68 7.66-17.09 18.34-20.09 31.1a19 19 0 01-1 3.81c-.9 1.91-2.76 1.58-4.39 1.3s-1.55-1.44-1.21-2.7c3.88-14.2 8.41-28.07 20.64-37.65a26.73 26.73 0 017-3.83c6.45-2.44 11.74-.56 15.33 5.44 4.92 8.25 6 17.57 6.48 26.86.46 8.3-.16 16.67.23 25 .22 4.8-1.29 6.81-6.09 6.08z" fill="#b4430f"/><path d="M134.68 31.06c3.47-8 6-16.36 12.8-22.56 5-4.54 10.37-6.75 16.62-4.07 5.82 2.49 10.05 6.81 10.66 13.66l-1.11 1.92c-3.42-1.22-4-5-6.5-7.17-5.34-4.6-10.54-5-15.79 0-8.15 7.69-12.36 17.18-11.68 28.45.27 4.67-1.29 6.46-5.86 5.63l-.21-7.91c.36-2.66.71-5.31 1.07-7.95z" fill="#e4b622"/><path class="cls-4" d="M157.53 59.7c.47-4.52 1.82-8.53 6.24-10.75 3.9.2 7.85-.19 11.68.93 3.06 1 3.34 3.74 4.09 6.23.89 2.94.21 6.21 2 9l5.07 1c-3.07 1.71-6.35.47-10.06.94 2.29-2.39 2.89-4.62 1.24-7.08-.66-3.79-1.78-6.88-6.58-7.15-4.61-.25-8.65-.1-10.28 5.21-1.33.63-1.24 1.83-1.19 3q-2 1.48 0 2.94v-.09c-4.23 2.36-8.86.48-13.24 1.22h-.05c1.9-1.9 4.43-.75 6.6-1.36l3.33-.87c1.37-.69 1.21-1.95 1.15-3.17z"/><path d="M181.49 65.06c-1.74-2.74-1.06-6-2-9-.75-2.49-1-5.26-4.09-6.23-.11-3.83 1.09-7.41 2.07-11 .25.34.31 1.71.93.52.47-.92.11-2.27.12-3.43A4 4 0 01179.7 33c.56 1.36 1.48 2.68 1.62 4.08.84 7.85 1.53 15.71 2.19 23.58.19 1.78.49 3.81-2.02 4.4z" fill="#dbae23"/><path d="M181.49 65.06c2.51-.59 2.21-2.62 2.07-4.38-.66-7.87-1.35-15.73-2.19-23.58-.14-1.4-1.06-2.72-1.62-4.08l2.69-4.9c1.58 11.36 3.37 22.7 3.23 34.22a4.14 4.14 0 001.77 3.38 2.33 2.33 0 01-.88.39z" fill="#bb991c"/><path d="M178.57 35.94c0 1.16.35 2.51-.12 3.43-.62 1.19-.68-.18-.93-.52a3.51 3.51 0 011.05-2.91z" fill="#e0a74c"/><path class="cls-38" d="M320.5 207.95v1c0 1.16 0 2.33.14 3.47q6.13 48 12.31 96c.67 5.17 1.25 10.35 2 16.37a44.49 44.49 0 01-10.86-7.77c-7.85-7.4-15.33-15.24-24.54-21.07l-1.89-2.1v.05c0-.94.05-1.87.07-2.8a36.62 36.62 0 00.89-11.14c2.28-19.93 4.73-39.84 5.06-59.93 2.21-14.46 3.61-29 4.44-43.62 1-18.11 2.78-36.15 4.23-54.22.22-2.65.22-5.31.32-8 .27-.42.54-.83.8-1.25 12.94 14.69 23.64 31.38 40.42 42.23 1.8-4.06 1.69-7.69-.36-11.19 2.51 1.37 3.12 3.5 2.8 6.24-.64 5.4-1.33 10.81-.93 16.27-.36 3-1.93 4.12-5 3.63a52.36 52.36 0 00-6.87-.2l-2.51-.1c-4.29-.62-8.57-2.09-12.87 0l-.8.75c-9.36 9.2-10.52 20.37-7.83 32.47.33 1.59.65 3.26.98 4.91zm-7.81-118l-.12 4c-2.89 19.38-4.59 38.89-5.82 58.42-1.07 17.06-2.58 34.08-3.95 51.11-.24 3-.24 5.94-.34 8.92-2.43 19-3.76 38.07-5 57.16a21.38 21.38 0 00-.81 8.34v1l-.18 1.6a16.57 16.57 0 00-.81 7.39v1l-.12 2.4-2.89.65-2-1.05c-3.86-3.17-8.45-5-12.92-7-1.79-2.08-.87-4.47-.67-6.71 2.48-26.7 5.66-53.34 7.24-80.13.93-15.62 2.3-31.22 3.48-46.82a35 35 0 00.94-11.3.58.58 0 00.1-.71c1.07-2.69.9-5.49.8-8.29l.06-3 .12-2.61c1.18-5.08.93-10.24.91-15.39l.08-1.62a38 38 0 001-11.39.54.54 0 00.06-.73l1.56-12.48c-.15 3.59.95 6.17 4.65 7.68 3.15 1.3 6 3.38 8.9 5.22 3.09 2 4.08.34 4.5-2.45a7.59 7.59 0 00-.86-4.29z"/><path d="M296.58 278.93v-1c1.8-2.63.78-5.54.81-8.34 1.28-19.09 2.61-38.17 5-57.16.58 2.5-.84 5.33 1.23 7.59-.33 20.09-2.78 40-5.06 59.93h-1z" fill="#1f2122"/><path d="M310.59 88.87a7.59 7.59 0 01.86 4.29c-.42 2.79-1.41 4.42-4.5 2.45-2.91-1.84-5.75-3.92-8.9-5.22-3.7-1.51-4.8-4.09-4.65-7.67.06-1.69-.49-3.52 1.16-4.82z" fill="#c6d1d4"/><path class="cls-6" d="M186.56 66.11a2.33 2.33 0 00.88-.39c3.23.56 6.6-.08 9.74 1.2-2.85.51-6-1-8.59 1.14-14.07-.42-28.11-1.24-42.09-3 4.38-.73 9 1.15 13.24-1.21 2.41.44 4.94-.17 7.26.93-1.32.47-2.91-.37-4.79 1.43 4.27-.83 7.92.79 11.37-1.15 4.17.58 4.5-2 4.16-5.09 1.65 2.46 1 4.69-1.24 7.08 3.71-.42 6.99.77 10.06-.94z"/><path d="M246.65 68.93c.43-4.24 3.85-2.84 6-2.8 5.06.07 9.93 1.49 14.72 3.08l-2 .88-13.93-1c.68-.6 2.12-.16 2.14-1.51 0-.18-1.07-.48-1.66-.54-1.52-.14-2.13.47-1.38 2z" fill="#949595"/><path class="cls-52" d="M294.56 77.9c-1.65 1.3-1.1 3.13-1.16 4.82l-1.71 12.5c-.78-3.37 1-7-1.08-10.24l.09-7 .75-1.27c.11 1.3.23 2.61.35 3.91 1.68-.14-.52-4.18 2.76-2.72z"/><path d="M250.58 68.99c-.75-1.51-.14-2.12 1.38-2 .59.06 1.66.36 1.66.54 0 1.35-1.46.91-2.14 1.51h-.46z" fill="#d5d4d3"/><path d="M265.41 70.09l2-.88c.95.14.94.82.84 1.53z" fill="#767875"/><path d="M340.54 171.9l3.57.18c3.42 1 6.92.93 10.42.8l3.55.19c1.35 1 3.59-.15 4.5 1.88-4.24 3.71-5.08 9.13-7 14a9 9 0 01-4.8 1c-8.52-.74-17-2.27-25.57-2-2.31.07-2.61-1.54-2.86-3.25.68-4.89 3.39-8.76 6.35-12.5h-.1c3.96-1.37 7.98.3 11.94-.3z" fill="#b3b2bb"/><path class="cls-39" d="M353.53 143.98c2.05 3.5 2.16 7.13.36 11.19-16.78-10.85-27.48-27.54-40.41-42.21 0-.66.05-1.33.08-2 1.92-1.58.09-4.43 2-6 7.59 6.23 13.18 14.33 20 21.25 5.98 5.97 12.92 10.92 17.97 17.77z"/><path d="M355.59 188.95c1.91-4.87 2.75-10.29 7-14l.9-1.95 3.46 1.14c-2.77 2.76-6.07 5.14-6.59 9.46l-.93 2.17c-3 8.19-1.77 16.22.95 24.2-2.15-1.26-4.82 1.25-6.84-1 1.37-.5 4.2.75 3.06-2.72-1.88-5.62-1.3-11.48-1.01-17.3z" fill="#201f24"/><path class="cls-57" d="M328.71 172.16c-3 3.74-5.67 7.61-6.35 12.5-1.64 3.91-1.22 8.11-1.73 12.18-1.8 1.79-.68 4.12-1.11 6.17-2.69-12.1-1.53-23.27 7.83-32.47z"/><path d="M360.35 183.63c.52-4.32 3.82-6.7 6.59-9.46a.52.52 0 00.61-.26h4.95l2.08 2c-.44.92-1.33 1-2.17 1.14-5.52-.1-8.9 2.61-9.88 7.93l-1 1c-.39-.81-.78-1.6-1.18-2.35z" fill="#a4a2ad"/><path d="M372.41 177.02c.84-.16 1.73-.22 2.17-1.14l1.76 1.15c1.88 3 3.29 6.17 3.3 9.81l-1.11 1.1c-1.32-4.04-2.12-8.31-6.12-10.92z" fill="#878791"/><path d="M343.53 169.92a52.36 52.36 0 016.87.2c3.07.49 4.64-.61 5-3.63.72 3.55-.87 4.92-4.28 4.46-2.53-.32-5.27.86-7.59-1.03zm-15.38-.13c4.3-2.06 8.58-.59 12.87 0zm12.39 2.11c-4 .6-8-1.07-11.93.27 3.93-2.21 7.92-1.54 11.93-.27z" fill="#2a2c2e"/><path d="M354.53 172.88c-3.5.13-7 .21-10.42-.8 3.49.12 7.07-1.02 10.42.8z" fill="#2b2b2b"/><path class="cls-38" d="M315.58 104.95c-1.93 1.58-.1 4.43-2 6a52 52 0 01.18-5.73c.17-1.34 1.01-1.44 1.82-.27z"/><path class="cls-37" d="M363.48 173l-.9 1.95c-.91-2-3.15-.88-4.5-1.88zm9.02.88h-4.95a3.55 3.55 0 014.95 0z"/><path d="M139.99 62.29c-2.09-.12-5.08-.13-8-.52-1.9-.26-5.08 1-5.24-2.12s.32-6.8 3.7-8.61a9.62 9.62 0 0114 7.84c.13 2.68-.52 4.27-4.46 3.41z" fill="#6e7783"/><path class="cls-1" d="M108.58 62.18a74.08 74.08 0 01-14.93-1.23l2-1 8.08.26c1.32 1.42 3.8-.03 4.85 1.97z"/><path class="cls-8" d="M133.61 38.99l.21 7.91c-1.92-2.59-1.59-5.27-.21-7.91z"/><path d="M254.64 56.63c2.32-2 4.89-1.77 7.42-.64 3.28 1.48 4 4.65 3.25 7.49s-3.72 1.71-5.52 1.17c-2.34-.69-5 .11-7.05-1.71 3.28-1.31 3.38-3.57 1.9-6.31z" fill="#861117"/><path d="M254.64 56.63c1.48 2.75 1.38 5-1.9 6.31-.95-2.59.52-4.44 1.9-6.31z" fill="#cb7b83"/><path class="cls-65" d="M261.54 600.02l50.11 14.9c-2.58 3.39-5.75 5.47-8.71 7.71-32.43 24.51-65.48 48.18-98 72.48-8.39 6.26-15.09 7.06-24.69 3.87-31.76-10.53-63.85-20-95.82-30-1.25-.39-2.49-.84-4.76-1.6 38.6-23.62 76.32-47.1 114.17-71.77 0 6.75.19 12.67-.07 18.56-.16 3.55.81 5.38 4.49 6.36 11.1 2.95 22.11 6.23 33.11 9.56a7.11 7.11 0 006.56-.86c4.85-3.2 9.81-6.24 14.73-9.34 3-.64 3.84-2.58 3.68-5.44-.19-3.28.22-6.62-.21-9.85-.72-4.71.92-6.17 5.41-4.58z"/><path d="M152.71 325.73c0-1.27-.06-2.54-.08-3.81 0-6.77.51-13.57-.91-20.27-.78-5 1.35-6.1 6.1-5.56 9.87 1.12 19.78 2.12 29.76 1.88l2.79.09a6.83 6.83 0 001.89.54c19.78-.35 39.4 1.85 59.06 3.45 2.31.63 3.52 1.72 3.21 4.54-1.3 12.2-2.39 24.43-3.48 36.66-1.21 13.54-2.33 27.09-3.49 40.64l-.09 1.8c-1.33 2.94-.68 6.1-1.06 9.14-12 0-23.8-2.2-35.72-3.11-17.39-1.34-34.74-3.18-52.11-4.8a490.51 490.51 0 01-5.09-49.88c-.16-3.77.6-7.62-.78-11.31z" fill="#737c87"/><path class="cls-67" d="M196.62 581.86c-.22-12.25.25-24.5-.73-36.76-.6-7.54.38-15.2.66-22.8.34-9.11-1.67-18.16-.73-27.29l5.69-.08c5.28 1.77 10.71.65 16.06.86 9.31.33 8.82.53 12.19 8.78 2.55 6.28 2.82 12.52 2.81 19 0 21.15-.37 42.32.3 63.45.38 12.14.33 24.28.71 36.41.12 3.73-.85 4.56-4.59 3.45-10.67-3.17-21.2-6.84-32.11-9.13q-.14-16.95-.26-33.91zm-7.04-146.02c0-12.55.07-22.72 0-32.87 0-2.95.83-4.33 4-4.06q18.36 1.58 36.74 3c2.67.2 3.31 1.77 3.24 4.05-.33 9.8 0 19.6-.6 29.43-.79 13.95-.38 28-.46 42 0 6.65 0 6.65-6.41 6.64-10.32 0-20.65-.18-31 0-3.44 0-4.51-1.06-4.63-4.56-.58-15.41-1.13-30.71-.88-43.63z"/><path d="M277.6 398.92c-.34 1.54-.75 3.1-2.86 2.53-8.63-2.32-17.59-3.37-26-6.58a10.06 10.06 0 00.56-1.9c1.78-20.28 3.44-40.57 5.33-60.84.88-9.38 1.27-18.83 3.17-28.09 11.47 6.71 22.89 13.5 34.43 20.1 2.42 1.38 1.93 2.93 1.47 5-2.49 11.18-4.87 22.39-7.28 33.58z" fill="#485764"/><path class="cls-65" d="M76.74 692.79c.62-6.11 1.42-12.21 1.79-18.33.21-3.54 1.39-4.09 4.64-3.05 13.28 4.26 26.63 8.3 40 12.43 21.42 6.63 42.83 13.31 64.29 19.82 3.37 1 4.59 1.91 2.89 5.69-2.37 5.27-3.89 10.94-5.77 16.43z"/><path class="cls-67" d="M256.58 508.88c-.53 1-1.08 2.06-1.58 3.1-2.25 4.72-5.42 5.33-9.29 1.67-6.52-6.17-8.95-14.2-10.11-22.76-1.65-12.09-.71-24.17-.24-36.3.58-14.95.26-29.95.34-44.92 0-7 0-6.93 7-5.25 5 1.22 10 2.5 15 3.5 2.79.55 3.95 1.81 3.78 4.72-1 16.9-1.94 33.81-2.68 50.72-.61 14.11-.9 28.24-1.33 42.36-.31.08-.62.14-.94.19a24.45 24.45 0 00-1.4-9.75c-.57-1.81-1.65-3.27-3.85-3.31a4.55 4.55 0 00-4.57 3.15 15.76 15.76 0 00.05 12.08c.75 1.89 1.59 3.81 4.05 3.76 2.23-.05 3.58-1.44 4.45-3.4.39-.89.88-1.74 1.32-2.61z"/><path class="cls-69" d="M184.41 745.23a141.06 141.06 0 015.57-27.84c.6-2.07 1.84-2.29 3.82-1.69q25.53 7.66 51.1 15.13c2 .57 2.36 1.52 1.76 3.27a163.44 163.44 0 00-7.11 31.53c-.35 2.59-2 1.67-3.33 1.23q-12.54-4.07-25.07-8.22c-6.78-2.24-13.47-4.79-20.35-6.67-4.55-1.27-7.3-3.15-6.39-6.74zM2.7 686.94a184.41 184.41 0 013.07-23.51c.64-2.8 1.83-3.8 4.91-2.8q24 7.31 48.13 14.21c2.3.66 2.36 1.76 1.84 3.64-2.85 10.24-5.42 20.52-5 31.28.08 2.29-.53 3.22-3.31 2.31-13.8-4.55-27.64-9-41.56-13.13-8-2.43-8.09-2.21-8.08-12z"/><path class="cls-67" d="M253.47 616.77c-4.55 2.76-9.16 5.43-13.63 8.31-2.57 1.65-3.14 1.13-3.48-1.86a150.47 150.47 0 01-.68-16.43q-.11-42.72-.21-85.44c0-3.39-.64-7 4.68-3.32a9.74 9.74 0 008.14 1.39c3.38-1 4.4.1 4.42 3.54.18 24 .52 47.93.81 71.89 0 1.67.05 3.33.08 5q-.06 8.46-.13 16.92z"/><path d="M76.74 692.79l107.8 33-3 15c-7.68-1.46-14.92-4.36-22.31-6.79q-39.69-13-79.53-25.58c-3.14-1-4.31-2.69-4.16-5.71z" fill="#676d72"/><path class="cls-69" d="M217.61 689.93c4 1.26 7.78 2.47 11.58 3.65l39.8 12.32c1.06.33 2.55.28 2.68 1.72.1 1.08-1.16 1.46-1.89 2.12-6.25 5.7-13.57 10.17-19.16 16.6-1.62 1.86-3.2 2.29-5.66 1.52-16.3-5.14-32.64-10.13-49-15.09-2.65-.81-4-2-2-4.53 6.13-7.65 14.51-12.55 22.37-18.07a2.83 2.83 0 011.28-.24zM87.19 650.97c-.22 1.25-1.18 1.64-2 2.16-3 1.81-5.93 3.68-9 5.43-5 2.93-10.23 5.7-12.32 11.75-.77 2.23-2.28 2.31-4.39 1.66q-24.33-7.4-48.71-14.58c-2.06-.61-3-1.33-2.26-3.83 1.24-4.27 3.44-7.43 7.48-9.41a102 102 0 0010-5.52c5.55-3.56 10.89-4.17 17.41-1.89 13.16 4.6 26.67 8.17 40 12.25 1.4.4 3.12.39 3.79 1.98zm215.55 31.35c-5.72 4.82-11.62 8.36-15.59 13.42-9.44 12-20 6.58-30.61 3.23l-32.27-10.16c-1.08-.34-2.58-.33-2.78-1.64s1.15-2 2.06-2.61c7.42-5.32 14.92-10.53 22.29-15.91a7.67 7.67 0 017.45-1.12c16.12 4.93 32.33 9.69 49.45 14.79z"/><path d="M75.54 702.71c-.15 3 1 4.72 4.16 5.71q39.83 12.62 79.53 25.58c7.39 2.43 14.63 5.33 22.31 6.79-.12 4.46-.22 8.91-.39 13.37-.13 3.56-2.48 1.8-3.87 1.35-10.57-3.45-21.1-7-31.64-10.58-22.18-7.47-44.3-15.1-66.56-22.31-4.92-1.6-6.51-4-5-8.67 1.26-3.67-.37-7.67 1.46-11.24z" fill="#475157"/><path class="cls-69" d="M38.29 632.1c7-4.06 13.46-6.89 18.8-11.15 10.37-8.28 20.71-7.3 32.25-2.92 11.23 4.27 23 7.11 35.43 10.84-10.36 6.35-19.83 12.25-29.36 18.06-2.48 1.51-5.07.91-7.7.11-16.03-4.9-32.06-9.7-49.42-14.94zm119.31-24.01c-9.4 6-18.36 11.66-27.31 17.37a5.19 5.19 0 01-4.7.55c-14.93-4.6-29.9-9.07-44.84-13.65-1.2-.37-3-.26-3.29-1.83s1.62-2 2.66-2.57c8.71-5.15 17.5-10.17 26.24-15.27a3.73 3.73 0 013.31-.32q23.33 7.34 46.65 14.62c.27.09.47.4 1.28 1.1zm94.63 55.73c9-6.5 17.15-12.4 25.31-18.26 1.37-1 2.8-.59 4.28-.13 14.25 4.45 28.51 8.85 42.76 13.3 1.18.37 3 .31 3 1.94 0 .87-1.27 1.84-2.12 2.57-5.81 4.93-11.73 9.73-17.46 14.73a4.88 4.88 0 01-5.36 1.1c-16.31-5.03-32.67-9.91-50.41-15.25z"/><path d="M377.52 637.63c-1.39 14.71-3.16 29.36-8.58 43.26a21.8 21.8 0 01-5.63 8.74c-18.6 16.53-36.35 34-55.17 50.31-11.16 9.67-21.89 19.84-32.87 29.7-8.52 7.65-17.13 15.18-25.73 22.73-1.8 1.58-4.1 2.92-6.32 2s-2.56-3.84-2.56-6.11a153.29 153.29 0 013.34-31.08c1-4.7 2.21-9.36 3-14.09 2.16-13 12-20.21 21.13-27.88 15.25-12.78 30.61-25.42 45.84-38.21q22.29-18.7 44.4-37.6c3.79-3.23 7.48-6.58 11.13-10 1.63-1.51 3.22-3.18 5.63-2.26s2.35 3.35 2.39 5.51c.03 1.63 0 3.29 0 4.98zm-3 4.14a29.48 29.48 0 000-4c-.29-2 1.21-4.66-1.62-5.69s-4.2 1.25-5.9 2.83c-4.74 4.41-9.41 8.9-14.3 13.15q-25 21.69-50.06 43.22c-11.31 9.74-22.94 19.12-33.84 29.28-5.5 5.13-12.36 9.09-15.77 16.34-3.58 7.62-4.77 15.87-6.32 24a96.44 96.44 0 00-2 23.73c.1 1.78.33 3.81 2.08 4.82 1.54.89 2.8-.2 4-1.24 14.87-13.22 29.87-26.31 44.61-39.68 14.14-12.83 27.79-26.2 42.12-38.8 6.11-5.37 11.59-11.39 18-16.48 4.76-3.79 9.29-8.09 11.52-14.16 4.29-12.08 7.37-24.41 7.49-37.34z" fill="#1f2124"/><path class="cls-69" d="M282.53 642.27a233.14 233.14 0 0121.79-16.72c1.6-1.09 3.47-.74 5.29-.18 13.63 4.18 27.25 8.37 40.92 12.43 2.68.79 3.08 1.67.91 3.49-5.84 4.88-11.71 9.72-17.47 14.69a4 4 0 01-4.43 1c-15.31-4.84-30.66-9.6-47.01-14.71zm-95.27-53.81c-8.34 6.41-16.39 11-24.16 16a4.63 4.63 0 01-3.89.12c-14.77-4.54-29.52-9.13-44.3-13.63-3.12-.95-1.79-2.37-.31-3.29 7.21-4.46 14.51-8.76 21.8-13.09a4.6 4.6 0 013.86-.3zm51.15 186.39a43.24 43.24 0 00-.19 16.9c.45 2.37-1.4 1.54-2.63 1.08q-15.84-5.93-31.68-11.85c-2.95-1.1-5.86-2.53-8.92-3.1-8-1.47-9.87-7.16-10.39-14-.07-1 0-2 0-3-.48-8-.48-8 7.58-5.35l42 14c2.28.77 4.7 1.25 4.23 5.32zM71.19 725.48c-3.86 5.12-8.77 4.62-10.36-.82-3.49-11.95-2.57-24 .37-35.88.91-3.71 2.06-7.36 3-11 2.42-9.34 9.45-14.23 17.23-18.84 30.86-18.29 61.13-37.55 91.39-56.83 5.88-3.75 11.68-7.6 17.55-11.37.88-.57 2-1.9 2.93-.49.78 1.24-.06 2.57-1.3 3.38-4.58 3-9.14 6-13.77 8.88q-34.56 21.74-69.16 43.4c-8.74 5.46-17.51 10.86-26.45 16-9.9 5.65-13.31 15.52-16.38 25.29a82.73 82.73 0 00-3.6 27.43 29.09 29.09 0 001.81 8.73c1.18 3.36 2.89 5.52 6.74 2.12z"/><path d="M369.91 625.3c-4.66 3.73-8.46 6.84-12.35 9.83-1.44 1.11-3.15.79-4.79.29-13-4-26.06-8-39.06-12-1.19-.37-3.06-.24-3.33-1.79-.31-1.81 1.72-2.13 2.75-3.1 6.86-6.46 14.54-6.17 22.9-3.41 10.84 3.51 21.85 6.57 33.88 10.18z" fill="#202125"/><path class="cls-69" d="M193.6 584.85c-3.6 2.39-6.84-.13-10-1-13.52-3.89-26.93-8.14-40.88-12.4a53.49 53.49 0 0113.49-8.73c3.08-1.47 6.18.17 9.13 1 7.79 2.27 15.52 4.77 23.27 7.17 1.08 1.32 2.59.91 4 1l1 1q0 5.98-.01 11.96z"/><path class="cls-74" d="M6.1 700.52c1.81.64 4.13 1.54 6.5 2.29q20.63 6.55 41.25 13.07c1.84.59 4.68 9.56 3.43 10.79-.88.87-1.92.22-2.78-.07-8.16-2.82-16.28-5.74-24.44-8.55-7.17-2.47-14.38-4.8-21.55-7.25-2.21-.76-5.38-7.72-4.53-9.68.31-.73.84-.94 2.12-.6z"/><path d="M243.54 516.27c-8.69-3-11.74-10-12.71-18.1-.4-3.36-1.34-4.54-4.77-4.57-8.47-.08-16.95-.61-25.42-.85-7.94-.23-7.95-.17-7.81 7.31-1.87-2.32-3-9.15-2.19-11.78.56-1.76 1.89-1.65 3.18-1.64 11.82 0 23.63.16 35.44.11 2.74 0 3.22 1.4 3.56 3.65 1.42 9.48 4.07 18.48 10.72 25.87z" fill="#62707b"/><path d="M174.67 391.27c31.33 3.69 63.17 3.12 95.25 11.8-5.25 1.88-9.11 3.14-13.45 1.85-18.42-5.48-37.4-7-56.47-8.17-8.59-.52-17.52-.65-25.33-5.48z" fill="#495561"/><path d="M257.81 304.04c-1.91 9.26-2.3 18.71-3.18 28.09-1.89 20.27-3.55 40.56-5.33 60.84a10.06 10.06 0 01-.56 1.9h-2.33c.38-3-.27-6.2 1.06-9.14.51 1.22-.51 2.76.9 4 .18-2.12.79-4.09-.81-5.79 1.16-13.55 2.28-27.1 3.49-40.64 1.09-12.23 2.18-24.46 3.48-36.66.31-2.82-.9-3.91-3.21-4.54 1.84-.06 3.74-.65 4.38 2.2.37 1.61 1.34-.45 2.11-.26z" fill="#16181c"/><path d="M75.79 673.69c-.86 8.13-1.52 15-2.31 21.76-.87 7.4-1.86 14.77-2.81 22.16a13.27 13.27 0 01-.54 2.9c-.35.94-1.09 1.89-2.14 1.86-1.32 0-1.2-1.3-1.39-2.25-2.31-11.75-.09-23.09 3.23-34.29 1.15-3.88 2.36-7.85 5.96-12.14z" fill="#383e44"/><path d="M188.56 497.03c-1.22-2.17-.74-4.56-.73-6.84.16-29.42-1.68-58.83-1-88.26a25.21 25.21 0 00-.5-3.91c2.84.24 2.26 2.43 2.26 4.14q.02 47.47-.03 94.87z" fill="#191d08"/><path class="cls-80" d="M152.71 325.73c1.38 3.69.62 7.54.78 11.31a490.51 490.51 0 005.09 49.88 1.86 1.86 0 00-1.94 1.73c-2.49-6.23-1.85-12.95-3-19.39-.39-2.11-.62-4.25-.92-6.38l-1.06-16c2.11-4.78.48-9.81.93-14.7.17-2.12.08-4.29.12-6.45z"/><path d="M277.6 398.92l8.81-36.21a3.71 3.71 0 00.25 1.45c.84 1.28.78.06.86-.39.42-2.38.5-4.87 2.24-6.82a231 231 0 01-6.22 29c-1.32 1.1-.93 2.61-.94 4-1.16.84-1 2-.95 3.26l-1.2 3.75c-1 .82-.92 1.93-.85 3h-1z" fill="#232722"/><path d="M253.47 616.77q.06-8.46.13-16.92c2.7-2.42 5.34-2.3 7.94.17-4.49-1.59-6.09-.13-5.46 4.63.43 3.23 0 6.57.21 9.85.16 2.86-.72 4.8-3.68 5.44-.07-1.15 2.22-1.67.86-3.17z" fill="#17191e"/><path class="cls-18" d="M196.62 583.86q.14 16.95.26 33.91c-.13-.1-.37-.18-.38-.3a120.51 120.51 0 01.12-33.61zm20.95-88.07c-5.35-.21-10.78.91-16.06-.86 5.36.31 10.79-1.01 16.06.86zm-23.97 89.06v-12a15.48 15.48 0 010 12zm-1.01-12.97c-1.39-.1-2.9.31-4-1 1.41.08 2.93-.35 4 1z"/><path class="cls-83" d="M278.61 399.91h1c0 1.37.32 2.83-1.09 3.78z"/><path class="cls-84" d="M256.55 505.91c.32 0 .63-.11.94-.19.11 1.17.17 2.33-.91 3.16v-3z"/><path class="cls-17" d="M127.63 372.74c1.69-1.5 1.91.69 2.83 1.12.11.77.21 1.55.31 2.32q-2.81 19.44-5.61 38.87c-.26 1.8-.38 3.62-.57 5.43a2.68 2.68 0 01-.79.55c-.12-.14-.22-.29-.32-.43.64-4.88 1.59-9.74 1.84-14.64.19-4 2.85-7.93.41-12a3.72 3.72 0 01.83-3.15c1.95-.87.89-1.88.13-2.88a3.9 3.9 0 01.86-3.18c.25.33.45 1.64.85.65a4 4 0 00-.66-4.43l.71-2.09c1.59-1.22 1.49-2.55.24-3.94-.35-.74-.71-1.47-1.06-2.2z"/><path d="M123.8 421.03a2.68 2.68 0 00.79-.55c-.46 3.09 1.62 6.6-1.48 9.27z" fill="#c0c3aa"/><path d="M121.47 441.54c0-2.37 0-4.75 1.05-7 0 2.38.52 4.78-.24 7.13 0 .07-.28.12-.41.09a1.45 1.45 0 01-.4-.22z" fill="#d0d68f"/><path d="M78.69 504.08c1.7-37.11 3.33-72.69 5-108.26.33-7.14.78-14.29 1-21.44.07-2.58 1-3.46 3.55-3.51 8-.16 16-.4 23.95-.85 3.77-.21 5.33.46 4.63 4.89-4 25.29-7.75 50.63-11.58 76-2.84 18.75-5.81 37.48-8.43 56.26-.5 3.6-1.69 5.11-5.26 4.74a29.06 29.06 0 00-3.49 0c-9.53.22-9.53.22-9.37-7.83z" fill="#596670"/><path class="cls-88" d="M127.55 384.75a3.9 3.9 0 00-.86 3.18c0 1-.09 1.92-.13 2.88a3.72 3.72 0 00-.83 3.15c-.85 8-3 15.77-3.15 23.84-2.58 9.6-3.37 19.51-4.92 29.28-3 18.64-5.72 37.31-8.55 56-.49 3.27-.87 6.55-1.3 9.83a16.34 16.34 0 01-1.75 6.58c-3.05-3.3-7.76-5-7.37-10.5 2.41-1.48 3.24 3.74 5.9 1.38a7.28 7.28 0 002.56-7.11c-.27-1.46-1-3.18-2.76-3.12-3 .09-3.33 2.71-3.84 5a4 4 0 00-.07.5 2.88 2.88 0 01-.68-.24c-.1-.07-.08-.31-.12-.47v-2.88a3.48 3.48 0 00.86-3.08q5.39-34.83 10.74-69.66 3.77-24.8 7.34-49.61c1-6.9.92-6.91 7.51-6.73a10.65 10.65 0 001.48-.17c.35.73.71 1.46 1.06 2.2l-.24 3.94c-.23.7-.47 1.39-.71 2.09-.05 1.2-.11 2.46-.17 3.72z"/><path d="M99.53 526.63c-1.33 4.69-.67 9.52-1 14.28-.21 2.8 2 3 3.84 3.72 9.9 3.74 19.83 7.4 29.68 11.24 1.07.42 3.89 0 2.51 2.85l-17.88.13c-10.35-3.12-20.76-6-31.35-8.11-4.86-1-7.07-2.87-6.14-8.43 1.19-7.16 1.26-14.5 2-23.54 4.56 7.17 10.63 6.08 16.48 5.94 1.16-.03 1.55.92 1.86 1.92z" fill="#9593a0"/><path class="cls-90" d="M79.6 360.9c-1.6-7.07-2.76-14.14-.09-21.23-.15 3.06 1.08 4.4 4.36 4.3a99 99 0 0115.27.72c4.48.55 9.22 1.11 13.69-.71-.46 5.46-.63 10.89.7 16.31.61 2.51 2.75 4.65 1.9 7.52-8.79-.09-17.58-.19-26.37-.67-4.79-.27-7.84-1.81-9.46-6.24z"/><path d="M76.41 553.97c-2.13.14-3-1.33-3.78-3V540.3l.11-2.49c1.78-2.28.71-4.9.87-7.38l.12-1.61c1.8-2.29.72-4.93.88-7.42l.09-1.57 2-4 1 1c-.67 9.71-1.4 19.42-2 29.13-.1 1.76-1 4.23 2.09 4.75l-.09-.06c.75 2 2.31 2.28 4.16 2l-.15-.07c1.07 1.74 2.77 1.15 4.3 1.15 8 1 15.66 3.61 23.45 5.61 2.68.69 5.29 1.87 8.17 1.52a35.61 35.61 0 0015 0c1.49 1.18 4.59-1.93 4.83 1.15.19 2.51-2.93 2.76-5 3.15-5.8 1.1-11.57.42-17.27-.8-12-2.56-23.75-6.06-35.53-9.44-.84-1.14-2.06-1.04-3.25-.95z" fill="#bfbed5"/><path d="M80.96 514.69c8.18 1.17 17-3.66 21.65 6.26-8.2 3.14-15.98 1.21-21.65-6.26z" fill="#3c474f"/><path d="M131.69 327.85a10.34 10.34 0 015.41 6.18c4 10.18 4 20.27-1.36 30.07l-1-2.16c2.45-8 4.23-16 1.1-24.23a8.4 8.4 0 00-2-4c-.69-2.24-2.71-3.26-4.3-4.67.8-.2 1.67-.33 2.15-1.19z" fill="#2b2a22"/><path d="M115.41 367.81c.85-2.87-1.29-5-1.9-7.52-1.33-5.42-1.16-10.85-.7-16.31l4.06-10.83 1.69-1.37 1.24 1.21c-1.07 2.89-3.09 5.41-3.36 8.61a29.69 29.69 0 00.24 19.28c.3 1.35.59 2.69.88 4-1.41.47.51 3.4-2.15 2.93z" fill="#211f24"/><path class="cls-95" d="M99.68 504.87c0 .16 0 .4.12.47a2.88 2.88 0 00.68.24 4 4 0 01.07-.5c.51-2.26.8-4.88 3.84-5 1.76-.06 2.49 1.66 2.76 3.12a7.28 7.28 0 01-2.56 7.11c-2.66 2.36-3.49-2.86-5.9-1.38.03-1.4-.38-2.95.99-4.06zm4.53-1.13c-.37.39-.84.67-1 1-.2.75-1.35 2.2.42 2.05 1.15-.05 1.23-1.71.58-3.05z"/><path d="M117.58 364.92c-.29-1.35-.58-2.69-.88-4 1-.81.86-2 1-3.09.44 1.21.85 2.44 1.33 3.64 2.51 6.27 6.06 7.32 11.53 3.44l1.12 1.11c-5.05 5.74-8.01 5.52-14.1-1.1z" fill="#807e88"/><path d="M131.68 365.98l-1.12-1.11c5.47-7.65 5.83-16.15 4.16-25l1.1-2.17c3.13 8.24 1.35 16.25-1.1 24.23z" fill="#6d6c73"/><path class="cls-98" d="M77.8 550.78c-3.06-.52-2.19-3-2.09-4.75.55-9.71 1.28-19.42 2-29.13 1.81 1.64.76 3.71.65 5.53-.46 7.6-1.12 15.2-1.73 22.79-.22 1.99-.5 3.99 1.17 5.56z"/><path d="M74.83 510.02l.66-13.14a2.3 2.3 0 01.23-.44c.48-.61.87-.25.87.24v18.26a1.53 1.53 0 01-.89-.17c-.29-1.57.3-3.33-.87-4.75z" fill="#5f5f6d"/><path d="M132.64 560.88a35.61 35.61 0 01-15 0c0-.32.05-.64.08-1 4.96.6 10.06-1.09 14.92 1z" fill="#030203"/><path class="cls-98" d="M75.71 514.77a1.53 1.53 0 00.89.17l.09.93-2 4c0-1.65.07-3.3.11-5a7.53 7.53 0 00.91-.1zm6.16 37.91c-1.85.32-3.41 0-4.16-2z"/><path class="cls-98" d="M86.02 553.76c-1.53 0-3.23.59-4.3-1.15a7.85 7.85 0 014.3 1.15z"/><path class="cls-95" d="M100.56 498.91a3.48 3.48 0 01-.86 3.08c-.05-1.12-.14-2.25.86-3.08z"/><path class="cls-101" d="M149.62 283.86l4.69.22c3.71 1.05 7.51.92 11.3.79l3.72.2c3 1.06 6.17.82 9.29.8h2l2.66.17a21.52 21.52 0 008.29.8l12.67 1.26a370 370 0 0039.88 3.94c3.07 1.08 6.25.92 9.43.84h2l2.75.14c4.9 1.14 9.88 1 14.85 1 4.73 1.13 9.55.95 14.36 1h1.6l6.35 1.23a129.17 129.17 0 0117.49 13.7c6.5 6.07 12.29 13 20.54 17l2.05 1.93c-4.49 2.75-9.4.07-14 1.06-3.81-.31-7.7-.25-11.42-1-5.05-1.05-11.87 1.9-14.3-5.78-.11-.35-.83-.5-1.26-.76-11.19-6.56-22.37-13.15-33.59-19.68-1.71-1-3.52-2.25-5.39-2.46-13.54-1.53-27.07-3.41-40.74-3.48-3.39-1.16-6.92-.77-10.37-.75-16.49.14-32.88-1.4-49.29-2.72-6.37-.51-6.14-.66-6 5.85.05 2.2 2.42 5.36-1.57 6.74-14.49-8.47-29.38-16.2-44.13-24.82l34.81 2c3.74 1.05 7.53.94 11.33.78z"/><path class="cls-102" d="M166.61 282.85l-.35-.17-.36.12-8.28-1c-3-1.49-6.14-.9-9.26-.68l-12.73-.24c-15.08-1.25-30.15-2.65-45.25-3.68-6.3-.43-10.27-4.84-15.23-8.31h5.51l1.72.19a21 21 0 008.27.79l4.63.25c4.43.9 8.9.78 13.38.69l43 3.09 2.72.19a25.9 25.9 0 009.27.81l2.71.2a25.92 25.92 0 009.28.83l1.76.16a259.29 259.29 0 0030.23 2.82l2.65.19a17.52 17.52 0 007.33.78l3.45.12c2.43 1 5 .94 7.53.84l3.49.18a22.57 22.57 0 008.53.9l2.51.16a17.84 17.84 0 007.47.77c2.78.34 5.55.77 8.33 1 9.35.69 18.81.91 26.73 7-1.12 1.48-2.9.66-4.29 1.23l-12.49-.29a69.69 69.69 0 00-14.78-1l-6.49-1c-2.93-1.59-6.06-.91-9.15-.81l-27.7-2.22-5.09-1c-1.93-1.42-4.08-.91-6.2-.73l-6.81-.19a.58.58 0 00-.77-.07c-3.57-1.13-7.25-1-10.92-1a57.67 57.67 0 00-14.35-.92z"/><path d="M81.55 298.92c-.52-6.78-1.08-13.57-2.78-20.2.29-1.07-.24-3.48 1.94-2.17 7.31 4.41 16.47 3.55 23.59 8.68 2.66 1.92 4.29 3.43 4.4 6.94q.53 16.65 1.78 33.26c.34 4.56-.66 6.66-5.76 6.53-5.94-.16-11.91.57-17.87.91l-1.14-3.09c0-.63-.09-1.26-.13-1.89 0-1.75.26-3.55-.86-5.12 0-.62-.07-1.24-.1-1.87 0-1.75.29-3.55-.9-5.09-.07-1-.13-2-.19-2.94a5.56 5.56 0 00-.77-4.2c0-.92-.1-1.84-.16-2.77 0-1.75.29-3.55-.88-5.1z" fill="#58666f"/><path d="M112.87 329.47c-.45-12.51-.87-24.41-1.32-36.31-.09-2.47.68-3.56 3.19-2.19.29.16.59.31.89.45 10.86 5 10.81 5 11.09 17.2.1 4.14.58 8.27.82 12.41.09 1.54-.11 3.54-2 3.48-4.73-.16-8.39 2.4-12.67 4.96z" fill="#3b4851"/><path class="cls-105" d="M116.89 333.15l-4.06 10.83c-4.47 1.82-9.21 1.26-13.69.71a99 99 0 00-15.27-.72c-3.28.1-4.51-1.24-4.36-4.3a18.13 18.13 0 013.57-8.17l1.42 2.53c.91 2.51 2.64 1.5 4.26 1h-.07c5.79 0 11.59.14 17.32-1 3.37.17 7 1.54 9.46-2.27z"/><path d="M147.63 305.91c4-1.38 1.62-4.54 1.57-6.74-.13-6.51-.36-6.36 6-5.85 16.41 1.32 32.8 2.86 49.29 2.72 3.45 0 7-.41 10.37.75l-2.54.31c-3.76-.05-7.54-.3-11.29-.07-4.49.28-9.11-1.18-13.46.94-10 .24-19.89-.76-29.76-1.88-4.75-.54-6.88.6-6.1 5.56-.08.78-.16 1.56-.23 2.35-1.22.77-.96 4.51-3.85 1.91z" fill="#171a1c"/><path d="M116.46 341.63c.27-3.2 2.29-5.72 3.36-8.61 2.65-2.72 5.38-5.24 9.67-4 1.59 1.42 3.61 2.44 4.3 4.68l-1.12 1.22c-5-4.24-8.67-3.73-11.81 1.89a64.47 64.47 0 00-3 7.21 3.27 3.27 0 01-1.4-2.39z" fill="#a2a1a9"/><path class="cls-80" d="M151.49 304c.07-.79.15-1.57.23-2.35 1.42 6.7.9 13.5.91 20.27-2.22-5.86-.31-11.98-1.14-17.92zm0 39.28c-1.33-6.41-.79-12.89-.79-19.35 1.98 6.38.65 12.9.79 19.35z"/><path class="cls-19" d="M106 334.02c-5.73 1.15-11.53 1-17.32 1 5.66-2.25 11.54-.72 17.32-1z"/><path class="cls-108" d="M157.62 281.8l8.28 1c-5.11-.07-10.28 1.05-15.28-.85z"/><path class="cls-109" d="M180.91 283.82c3.67 0 7.35-.15 10.92 1-3.68.84-7.63-1-11.19 1.08h-2v-.93l.88-.76c.44-.16.89-.27 1.39-.39z"/><path class="cls-108" d="M180.91 283.82c-.48.12-.95.23-1.42.36-4.24-1-8.78 1-12.88-1.33a57.67 57.67 0 0114.3.97z"/><path class="cls-110" d="M135.63 280.88l12.73.24.44.7c-4.39-.13-8.9 1.02-13.17-.94z"/><path class="cls-108" d="M165.61 284.87c-3.79.13-7.59.26-11.3-.79 3.78.05 7.65-1.06 11.3.79z"/><path class="cls-110" d="M149.62 283.86c-3.8.16-7.59.27-11.31-.77 3.79.01 7.65-1.04 11.31.77z"/><path class="cls-101" d="M148.8 281.82l-.44-.7c3.12-.22 6.27-.81 9.26.68l-7 .15z"/><path class="cls-111" d="M86.64 266.88l3.3.89-3.37.36-5.91-.17v-1z"/><path d="M116.89 333.15l-1.43-1.4c.77-1.45 1.9-2.89 3.56-2.3 1.16.41-.35 1.5-.44 2.33-.57.45-1.17.91-1.69 1.37z" fill="#858389"/><path class="cls-108" d="M178.61 284.94v.93c-3.12 0-6.26.26-9.29-.8z"/><path class="cls-102" d="M86.64 266.88l-6 .07-2.51-.92c2.85.23 5.84-.99 8.51.85z"/><path d="M80.66 267.96l5.91.17a2.48 2.48 0 010 .61l-4.21.34-1.71-.19z" fill="#080707"/><path class="cls-19" d="M83.72 315.81c1.19 1.54.92 3.34.9 5.09-1.49-1.48-.83-3.35-.9-5.09zm5.03 19.18c-1.62.5-3.35 1.51-4.26-1zm-7.03-34.19c1.17 1.55.91 3.35.88 5.1-1.46-1.49-.82-3.36-.88-5.1zm3 21.97c1.12 1.57.85 3.37.86 5.12-1.45-1.51-.8-3.38-.86-5.12zm-1.96-14.14a5.56 5.56 0 01.77 4.2c-1.22-1.2-.82-2.7-.77-4.2zm2.95 21.15l1.14 3.09c-1.31-.68-1.19-1.9-1.14-3.09z"/><path class="cls-98" d="M72.58 540.35v10.67c-1.46-3.55-.93-7.11 0-10.67z"/><path class="cls-14" d="M134.85 558.97l3.67-2c.1 3.14-1.27 3.53-3.67 2z"/><path class="cls-98" d="M74.56 521.45c-.16 2.49.92 5.13-.88 7.42a18.69 18.69 0 01.88-7.42zm-1 9.03c-.16 2.48.91 5.1-.87 7.38a17.14 17.14 0 01.87-7.38z"/><path d="M75.71 514.77a7.53 7.53 0 01-1 .16c0-1.64.05-3.28.07-4.92 1.22 1.43.63 3.19.93 4.76z" fill="#7f7f91"/><path class="cls-98" d="M76.41 553.97c1.22-.09 2.44-.19 3.3 1a3.93 3.93 0 01-3.3-1z"/><path class="cls-14" d="M122.58 417.8c.12-8.07 2.3-15.87 3.15-23.84 2.44 4.07-.22 8-.41 12-.25 4.9-1.2 9.76-1.84 14.64-1.07-.69-.76-1.82-.9-2.8z"/><path class="cls-115" d="M289.14 295.04h-1.6c.25-1.08 2.77-1.37 1.08-3.12l1.92-1 2 1.05c1.29 1.19 2.29 1.15 2.89-.65l.12-2.4 1 2.06c0 1.08-.11 2.22 1.05 2.89v-.05a1.79 1.79 0 001.89 2.1c9.21 5.83 16.69 13.67 24.54 21.07a44.49 44.49 0 0010.86 7.77c-.73-6-1.31-11.2-2-16.37q-6.15-48-12.31-96c-.15-1.14-.1-2.31-.14-3.47 5 .94 10.16-1.44 15 1-2.65 0-5.32.14-8-.13-3.38-.33-4.51 1-4 4.27.75 5.24 1.34 10.51 2 15.77 2.86 22.18 5.87 44.34 8.53 66.54 1.53 12.83 3.93 25.56 4.53 38.5-.74 1-1.48 2-2.21 3 0-1.32.07-2.63.11-3.95 2.75-4.34-1.28-8.32-.39-12.6-.44 2.17-.62 4.27-2.61 5.62-8.25-3.94-14-10.9-20.54-17a129.17 129.17 0 00-17.49-13.7c-1.62-2.33-4.07-.99-6.23-1.2z"/><path class="cls-116" d="M336.8 371.77c-5.93 1.86-3 5.79-2.15 9.22 0 1.5.09 3 0 4.49q-2.13 32.61-4.3 65.21c-.66 9.79-1.43 19.57-2.14 29.35l-3.45 47.74-2.28-1.92c1.33-20.27 2.61-40.54 4-60.81q2.94-42.62 6.05-85.23a25 25 0 00-1.4-10.19c-3.47-10-2-19.63 3.41-28.69 1.7.22 3.78-1.26 5 1.12-3.87-.67-4.36 2.16-5 4.83a31.05 31.05 0 00-2 18.81c.52 2.69 1.33 5.09 4.26 6.07z"/><path d="M333.52 326.94c2-1.35 2.17-3.45 2.61-5.62-.89 4.28 3.14 8.26.39 12.6l-.2-.2.16-.24c-4.13-3.25-8.86-.91-13.29-1.45a115.27 115.27 0 01-23.32-1.64c-3-.49-4.06.41-4.66 3.3-1.64 7.79-3.61 15.51-5.44 23.26-1.74 1.95-1.82 4.44-2.24 6.82-.08.45 0 1.67-.86.39a3.71 3.71 0 01-.25-1.45c2.41-11.19 4.79-22.4 7.28-33.58.46-2.06.95-3.61-1.47-5-11.54-6.6-23-13.39-34.43-20.1-.76-.19-1.73 1.87-2.1.21-.64-2.85-2.54-2.26-4.38-2.2-19.66-1.6-39.28-3.8-59.06-3.45a6.83 6.83 0 01-1.89-.54c1.81-.06 3.62-.07 5.41-.2 5.51-.39 11.1.91 16.55-.76l2.54-.31c13.67.07 27.2 1.95 40.74 3.48 1.87.21 3.68 1.47 5.39 2.46 11.22 6.53 22.4 13.12 33.59 19.68.43.26 1.15.41 1.26.76 2.43 7.68 9.25 4.73 14.3 5.78 3.72.77 7.61.71 11.42 1 4.43 1.88 9 .77 13.57.74 1.1 0 1-1 .45-1.8a1.94 1.94 0 00-2.05-1.93z" fill="#121516"/><path d="M322.47 525.86l2.28 1.92c5.08 0 10.17-.16 15.25 0 3.33.12 4.57-1.26 5-4.47.41-2.88-.2-6 1.41-8.65l.61 1.26c.79-.91.15-1.48-.49-2l.88-2.29c1.88.58 2.18-2.34 4-1.81-4.44 5.68-3.75 12.44-4 19a.44.44 0 00-.05.69l-.76 1.34c-2.36 2.94-.33 6.54-1.44 9.69l-2.19-1.57c-4.28 0-8.65.55-12.4-2.32-2-1.57-3.94-3.31-6.09-4.69-2.4-1.53-3.07-3.46-2.01-6.1zm6.6 5.32c2.88 4.45 7 4.63 11.12 5.18 2.38.31 4 .22 4.2-2.59s-1.22-4-3.89-3.73c-3.62.32-7.24.72-11.43 1.14z" fill="#171819"/><path class="cls-115" d="M323.19 332.03c4.43.54 9.16-1.8 13.29 1.45-4.31-1.57-8.95-.06-13.29-1.45z"/><path class="cls-83" d="M282.61 389.96c0-1.42-.38-2.93.94-4a5.6 5.6 0 01-.94 4zm-2.99 10.01c-.07-1.11-.14-2.22.85-3a4.15 4.15 0 01-.85 3z"/><path class="cls-83" d="M281.67 393.18c-.1-1.21-.21-2.42.95-3.26a4.28 4.28 0 01-.95 3.26z"/><path class="cls-40" d="M364.56 521.87a345.13 345.13 0 011.85 36.93l-13.76 7.76c-1.47-1.68-.75-3.4-.74-4.94.09-12.91.27-25.83.45-38.74.05-3.15 0-6.34 2.25-8.94.31.63.61 1.27.92 1.91-.24 2.22.09 4.24 2.25 5.42s3.33-.26 4.65-1.47z"/><path class="cls-119" d="M347.47 528.86c.25-6.56-.44-13.32 4-19 1.73-.29 3.3-1.63 5.41-.81-1.23.9-2.34 1.73-3.46 2.56-3.75 3.17-3.73 7.59-3.79 11.9-.16 13.14-.16 26.29-.32 39.44 0 2.39.52 5-1.75 6.94l-.21-.22c2.33-13.15.87-26.4.92-39.6 0-.44-.52-.81-.8-1.21z"/><path class="cls-119" d="M300.71 570.63c-.15-.21-.31-.41-.47-.61l47.1-.36.22.22-1 1.12-40.94-.09z"/><path class="cls-25" d="M305.58 570.92l40.94.09v.83h-35.73c-1.76-.01-3.68.52-5.21-.92z"/><path d="M355.5 515.85c-.31-.64-.61-1.28-.92-1.91v-1c2.65-.88 5.1-3.08 8.16-1.24-.86.18-1.76.27-2.22 1.2-2.59-.6-3.68 1.39-5.02 2.95z" fill="#59595f"/><path d="M291.74 562.93c16.46-2.61 33.13-1.65 49.65-3 2 2.92-1.44 2.55-2.26 3.77l-1.59.19c-9.78.29-19.58-.36-29.33.84-4.76 0-9.52 0-14.27-.15-.92-.01-3.06.96-2.2-1.65z" fill="#8f8e9b"/><path d="M337.54 563.9l1.59-.19c1.23.17 2.24.57 2.37 2l.08.3h-4.69c-7.4-.07-14.8-.25-22.2-.13-3 .05-6.24-1-9.12.89a90.11 90.11 0 01-16-.08v-.87c-1-2.25.17-2.92 2.19-2.94-.86 2.61 1.28 1.64 2.2 1.66 4.75.14 9.51.12 14.27.15 6.08 0 12.17.26 18.24.06 3.67-.07 7.51 1.11 11.07-.85z" fill="#1d1c21"/><path d="M341.5 565.73c-.13-1.45-1.14-1.85-2.37-2 .82-1.22 4.29-.85 2.26-3.77.53-.3 1.46-.55 1.51-.92.16-1.11-.95-1-1.65-1.28 2.7-6 2.37-12.37 1.79-18.73l2.18 1.57c1.11-3.15-.92-6.75 1.44-9.69l-.15 11-.08 2.5c-1.23 3.75-.9 7.64-.91 11.49l-.09 2.65c-.38 1.76-.75 3.52-1.13 5.29z" fill="#252422"/><path d="M360.54 512.87c.46-.93 1.36-1 2.22-1.2l.74.23c.47 3.31 1.43 6.57 1.06 10l-2.15-2.1c.47-2.61.53-5.1-1.87-6.93z" fill="#7a7882"/><path d="M346.41 544.38l.08-2.5c2.12-4 .69-8.21.91-12.33a.44.44 0 01.05-.69c.28.4.8.81.8 1.21-.05 13.2 1.41 26.45-.92 39.6l-47.11.36c-4.26-.7-9 1.54-12.77-2.17h41.88c1.77 0 3.7.54 5.19-1l1.62-.11c1.85.08 3.76.61 5.42-.7l-.08-.3 2.8-1.92c2-1.42 1.08-3.46 1.13-5.29l.09-2.65c2.04-3.71.73-7.67.91-11.51z" fill="#bdbcd2"/><path class="cls-119" d="M334.54 566.84c-1.49 1.54-3.42 1-5.19 1h-41.88c.19-1.32 1.36-.81 2.09-1.12a90.11 90.11 0 0016 .08z"/><path d="M338.62 334.91c-.6-12.94-3-25.67-4.53-38.5-2.66-22.2-5.67-44.36-8.53-66.54-.68-5.26-1.27-10.53-2-15.77-.47-3.26.66-4.6 4-4.27 2.64.27 5.31.1 8 .13 4.89 1.34 9.92.95 14.89 1.06 4.18.09 5.69 1.9 6.1 6q6 60.77 12.49 121.48c.39 3.69-.85 4.46-4 4.11-6.61-.73-13.2-1.57-19.83-2.06-3.8-.27-6.24-1.61-6.59-5.64z" fill="#586770"/><path d="M381.53 323.91c.3 3.37-.79 6.86.93 10.09-2.15 3.4-6.45 3.59-9.23 6.22-1.2 1.13-1.53-1-1.64-2.08-1.71-16.83-3.35-33.67-5.11-50.5-2.19-20.95-4.48-41.89-6.71-62.84-.24-2.29-.58-4.61.18-7.19 4.21 1.57 8.24 2.19 12.28-.66 2.37-1.66 2.14.84 2.24 2.16.71 9.94 1.38 19.88 2.07 29.82 1.25 18.8 2.43 37.6 3.82 56.39.34 4.57-.8 9.28 1.08 13.73z" fill="#3d4852"/><path class="cls-90" d="M320.63 196.84c.51-4.07.09-8.27 1.73-12.18.25 1.71.55 3.32 2.86 3.25 8.6-.27 17.05 1.26 25.57 2a9 9 0 004.8-1c-.29 5.82-.87 11.67 1 17.35 1.14 3.47-1.69 2.22-3.06 2.72-6.84-.61-13.66-1.45-20.56-1.19-3.06-1-6.26-.73-9.41-.95h.05l-1.93-4c-.21-2 .11-4.17-1.06-6z"/><path class="cls-105" d="M334.51 346.86c.66-2.67 1.15-5.5 5-4.83a203.44 203.44 0 0028.83 3l2.09 3-2.91 6a9.19 9.19 0 01-6.74.59c-7.54-1.78-14.93-4.26-22.74-4.75a3.42 3.42 0 01-3.53-3.01z"/><path d="M360.41 209.97c-2.72-8-3.95-16-.95-24.2.17 1.16 0 2.46 1.21 3.22v3a28.2 28.2 0 000 8.89 5.74 5.74 0 00.85 4.13 9.81 9.81 0 005.06 7 1.86 1.86 0 003 .12l3-1.36.2 1.43c-5.62 4.02-7.79 3.63-12.37-2.23z" fill="#7c7b85"/><path class="cls-129" d="M367.53 353.92l2.91-6 2 .94c-.37 1.25-.75 2.5-1.12 3.76-3.06 6.11-2.92 12.69-2.79 19.27-2.16 4.33-5.49 3.53-9 2.06a8.8 8.8 0 012-.06c3.54.69 5.16 0 4.34-4.24-1.05-5.28.47-10.54 1.66-15.73z"/><path d="M371.29 352.63c.37-1.26.75-2.51 1.12-3.76a56.77 56.77 0 014.78-5.46c4.34-3.88 7.43-3.41 12.23 1.53.4 1.3.79 2.6 1.19 3.89-.28 1 .06 2.21-1 3-.4-1.55-.68-3.16-2-4.32-3.2-4-6.1-4.37-9.72-1.08-2.55 2.33-3.95 5.47-5.56 8.44z" fill="#a09fa8"/><path class="cls-131" d="M372.71 212.21c-.07-.48-.13-1-.2-1.43 5.33-6.74 6-14.7 6-22.84l1.11-1.1a3.42 3.42 0 01.72.35v9.53c-1.31 4.51-2.17 9.19-4.92 13.17z"/><path class="cls-115" d="M321.68 202.91l1.93 4-3.11 1c-.33-1.65-.65-3.29-1-4.94.43-2-.69-4.38 1.11-6.17.07 2.13-.82 4.37 1.07 6.11z"/><path class="cls-115" d="M323.56 206.88c3.15.22 6.35-.1 9.41.95-3.14-.2-6.44 1.12-9.41-.95z"/><path class="cls-129" d="M370.41 347.99l-2.09-3c2.24-.05 2.35 1.37 2.09 3z"/><path d="M346.41 514.68c-1.61 2.69-1 5.77-1.41 8.65-.46 3.21-1.7 4.59-5 4.47-5.08-.18-10.17 0-15.25 0l3.45-47.74c.71-9.78 1.48-19.56 2.14-29.35q2.2-32.61 4.3-65.21c.1-1.49 0-3 0-4.49h-.05c1.52-2.14.45-4.73 1.21-7h3.56c1.58 1.1 3.37.85 5.13.78 5.1.57 10.2 1.38 15.32 1.66 4.22.23 5.24 2.05 4.68 6-2.3 16.26-4.41 32.54-6.55 48.82q-5.27 40.19-10.53 80.36l-.87 2.22a1.34 1.34 0 00-.13.83z" fill="#586670"/><path class="cls-88" d="M362.56 491.89c0 .65-.06 1.3-.08 2-1.39 1.48-.86 3.31-.93 5-1.63 1.78-.81 4-1 6-2.39 2-5.44.7-8.11 1.65-1.7.6-1.39-1.15-1.24-2.33 1.23-9.54 2.36-19.09 3.62-28.62 2.19-16.59 4.49-33.16 6.66-49.75q2.64-20.22 5.07-40.45c.33-2.78 1.19-3.74 3.65-1.72.51.42 1.21 1 1.74.9 8.29-1.18 7.12 4.22 6.51 9.25-3 10.35-3.85 21.1-5.67 31.66-3.43 19.9-6.21 39.91-9.25 59.87a14.86 14.86 0 00-.07 1.49c-1.36 1.49-.82 3.33-.9 5.05z"/><path class="cls-90" d="M367.53 353.92c-1.19 5.19-2.71 10.45-1.69 15.76.82 4.29-.8 4.93-4.34 4.24a8.8 8.8 0 00-2 .06l-22.72-2.21c-2.93-1-3.74-3.38-4.27-6.1a31.05 31.05 0 012-18.81 3.42 3.42 0 003.54 2.9c7.81.49 15.2 3 22.74 4.75a9.19 9.19 0 006.74-.59z"/><path d="M371.29 352.63c.37.74.74 1.48 1.12 2.22-1.05 5.94-2.83 11.82-1 17.94 1.33 4.55 3.82 7.22 9 6l1.21 1.17a3 3 0 00-.37.74c-6.6 1.95-7.44 1.6-11.57-4.8a4.41 4.41 0 00-1-3.16 1.24 1.24 0 00-.15-.8c-.12-6.6-.3-13.18 2.76-19.31z" fill="#7f7d87"/><path class="cls-116" d="M335.81 373.97c-.76 2.27.31 4.86-1.21 7 .31-2.34-1.12-5 1.21-7z"/><path class="cls-33" d="M360.56 504.89c.17-2-.65-4.21 1-6-.21 2.03.62 4.21-1 6z"/><path class="cls-116" d="M344.5 374.77c-1.76.07-3.55.32-5.13-.78 1.74.02 3.58-.57 5.13.78z"/><path class="cls-33" d="M361.55 498.89c.07-1.73-.46-3.56.93-5 0 1.67 0 3.34.05 5z"/><path class="cls-129" d="M368.65 372.72a4.41 4.41 0 011 3.16c-1.24-.79-1.17-1.96-1-3.16z"/><path class="cls-33" d="M362.56 491.89c.08-1.72-.46-3.56.91-5-.06 1.68.56 3.53-.91 5z"/><path class="cls-28" d="M381.53 323.91l-.09-4.86v-8.76c.63 4.56 2.12 9.14.09 13.62z"/><path d="M381.56 379.94l-1.21-1.17c2.73-2.41 5.37-4.89 6.3-8.63 3.68-5.66 2.8-12.07 3-18.31 1-.77.69-2 1-3 3.31 10.24-.95 24.88-9.09 31.11z" fill="#66666e"/><path d="M217.63 222.03c-5.39 7.39-12.3 12.51-21.44 14.29-18.5 3.63-37.18 5.49-55.12-1.6-26.93-10.63-40.49-31.43-41.83-60.07-1.45-30.9 8.3-56.4 36.81-72 13.15-7.21 26.85-7.5 40.24-.81a66.87 66.87 0 0018.72 6.33 30.71 30.71 0 0113.73 5.52c-.46.48-.93.95-1.39 1.42-5.19-2.07-10.3-4.4-17.55-5.1a80 80 0 0117.7 22c5.91 13.13 10.78 26.38 9.15 41.28-1.61 14.65-5.5 28.41-14.24 40.38a69.52 69.52 0 01-25.78 22 29.48 29.48 0 002.95.3c15.07-.32 28.56-4.15 38-17.05 1.01 1.02-.17 2.08.05 3.11zm-3.91-47.49c.11-22.91-7.18-42.81-17.81-54.65-10.07-11.22-21.87-19.66-37.66-20-20.14-.48-44.26 17.3-50.85 37.38-3.86 11.75-6.4 23.71-5.75 36.26 1.28 24.39 11.15 43.77 33 55.62 18.68 10.13 37.35 10.41 54.49-4.89s24.16-34.51 24.58-49.72z" fill="#101214"/><path class="cls-136" d="M290.61 84.98c2.06 3.23.3 6.87 1.08 10.24a.54.54 0 01-.06.73c-2.06 3.65-.77 7.58-1 11.39 0 .54 0 1.08-.08 1.62-2.06 5-.7 10.25-.91 15.39l-.12 2.61c-1.07.81-1 1.95-.9 3.1v8.18a.58.58 0 01-.1.71c-2 3.62-.74 7.52-.94 11.3-1.18 15.6-2.55 31.2-3.48 46.82-1.58 26.79-4.76 53.43-7.24 80.13-.2 2.24-1.12 4.63.67 6.71-3.66-.65-.83-4.62-3.07-6 1.32-14.37 2.73-28.74 3.93-43.12 2.27-27.29 4.43-54.6 6.64-81.9.08-1 .29-2 .44-2.94 1.94-3 .71-6.3.89-9.47.06-1.51.11-3 .17-4.54 1.78-2.95.8-6.15.81-9.25l.2-2.76c1.92-4.39.61-9 .83-13.48.06-1.17.11-2.34.16-3.51 1.82-3 .67-6.29.83-9.45 0-.85.09-1.69.13-2.54 1.88-2.65.72-5.61.86-8.43z"/><path d="M217.63 222.03c-.27-1 1-2.09-.07-3.1 1-1.51 2-3.07 3.08-4.52 6.31-8.26 11.9-16.8 13.21-27.53a121.86 121.86 0 00-.23-28.82c-1.28-11.16-4.7-21.38-12-30.05-4.13-5-9.67-8.4-14.22-12.91.46-.47.93-.94 1.39-1.42 13.45 8.61 23 20.08 26.21 36.1a112.42 112.42 0 011.67 36.77c-1.88 14.24-9.88 25.17-19.04 35.48z" fill="#16181b"/><path d="M163.63 274.9a25.9 25.9 0 01-9.27-.81l4.86-.5c-2.56-.11-5.21-1.61-7.58.31l-43-3.09v-.88l.92-.72 1.38-.43c17.3.49 34.48 2.5 51.72 3.74 3.47.25 6.95.34 10.43.5l2.53.9v2a25.92 25.92 0 01-9.28-.83l4.87-.52c-2.57-.3-5.19-1.46-7.58.33z" fill="#1c1e1f"/><path class="cls-139" d="M274.55 277.92c2.24 1.37-.59 5.34 3.07 6 4.47 2 9.06 3.85 12.92 7l-1.92 1-.19.11-2.8-1.15c-7.92-6.11-17.38-6.33-26.73-7-2.78-.21-5.55-.64-8.33-1-2.34-1.67-5-.75-7.47-.77l-2.51-.16c-2.68-1.91-5.68-.67-8.53-.9l-3.49-.18c-2.35-1.71-5-.63-7.53-.84l-3.45-.12-1.05-1a1.66 1.66 0 00-.14-.66l1.54-.44a.42.42 0 01.63.07c3.33 2.14 7 .73 10.48 1l1.53.09c3.26 2 6.82.7 10.24.94a.6.6 0 01.76 0c3.29 1.95 6.86.82 10.31.92 5.77.43 11.58.57 17.3 1.38 3.75.5 5.22-.84 5.36-4.29z"/><path class="cls-140" d="M217.94 277.77l-1.53.43c-2.95.05-6-1.17-8.8.71a259.29 259.29 0 01-30.2-2.82c2.18-.82 4.64.52 6.75-.86l.73-.51c11.04.58 22.07 1.52 33.05 3.05z"/><path class="cls-15" d="M109.56 269.21l-.92.72-13.36.19-4.63-.25c-1.1-1.29-2.69-.82-4.07-1.13a2.48 2.48 0 000-.61l3.37-.36 1.71.14c2.15 1.81 4.69.72 7 .92z"/><path class="cls-52" d="M288.46 110.46c-.22 4.5 1.09 9.09-.83 13.48-.11-4.51-.22-9.03.83-13.48z"/><path class="cls-141" d="M109.56 269.21l-10.86-.37q0-.39-.06-.78c4.12-.13 8.25-.37 12.3.72z"/><path class="cls-136" d="M229.05 278.81c-3.5-.24-7.15 1.17-10.48-1 3.53 0 7.06-.11 10.48 1z"/><path class="cls-142" d="M251.89 280.8c-3.45-.1-7 1-10.31-.92a30.87 30.87 0 0110.31.92z"/><path class="cls-136" d="M240.82 279.84c-3.42-.24-7 1.07-10.24-.94a30.7 30.7 0 0110.24.94z"/><path class="cls-143" d="M287.41 126.7c0 3.1 1 6.3-.81 9.25-.06-3.11-.19-6.23.81-9.25z"/><path class="cls-52" d="M286.41 140.49c-.18 3.17 1 6.47-.89 9.47a28 28 0 01.89-9.47z"/><path class="cls-140" d="M175.61 274.91v-1l5-.11 4.27.91-.72.51z"/><path class="cls-52" d="M289.41 97.5c-.16 3.16 1 6.44-.83 9.45a25.32 25.32 0 01.83-9.45zm1-10.97c-.14 2.82 1 5.78-.86 8.43a20.94 20.94 0 01.86-8.43z"/><path class="cls-111" d="M98.64 268.06q0 .39.06.78c-2.36-.21-4.9.88-7-.93z"/><path class="cls-102" d="M180.59 273.81l-5 .11-2.53-.9c2.54.2 5.17-.86 7.53.79z"/><path class="cls-6" d="M157.53 59.7c.06 1.22.22 2.48-1.15 3.18.38-1.06.76-2.12 1.15-3.18z"/><path d="M177.74 59.97c.34 3.11 0 5.67-4.16 5.09l-6.58-.28c-2.32-1.1-4.85-.49-7.26-.93V61c1-.78 1-1.93 1.19-3 1.63-5.31 5.67-5.46 10.28-5.21 4.75.3 5.87 3.39 6.53 7.18z" fill="#67707b"/><path class="cls-6" d="M159.73 61v2.94q-2-1.45 0-2.94z"/><path class="cls-6" d="M160.88 58.03c-.18 1.09-.2 2.24-1.19 3-.05-1.17-.14-2.4 1.19-3z"/><path class="cls-145" d="M297.6 279.97h1a36.62 36.62 0 01-.89 11.14l-.41-.36z"/><path class="cls-145" d="M297.67 293.88c-1.16-.67-1-1.81-1.06-2.89a2.32 2.32 0 00.72-.27l.41.36c-.02.93-.05 1.86-.07 2.8z"/><path class="cls-145" d="M299.54 295.93a1.79 1.79 0 01-1.89-2.1z"/><path class="cls-52" d="M289.69 124.35c.21-5.14-1.15-10.37.91-15.39.02 5.15.27 10.31-.91 15.39z"/><path class="cls-139" d="M297.33 290.72a2.32 2.32 0 01-.72.27c-.34-.68-.69-1.37-1-2.06v-1c1.73-2.3.87-4.89.81-7.39l.18-1.6 1 1z"/><path class="cls-52" d="M290.68 107.34c.18-3.81-1.11-7.74 1-11.39a38 38 0 01-1 11.39zm-3.01 42.91c.2-3.78-1.08-7.68.94-11.3a35 35 0 01-.94 11.3z"/><path class="cls-145" d="M297.41 269.63c0 2.8 1 5.71-.81 8.34a21.38 21.38 0 01.81-8.34z"/><path class="cls-143" d="M288.71 138.24v-8.18a4.71 4.71 0 01.84-.11c.06 2.8.23 5.6-.84 8.29z"/><path class="cls-145" d="M296.41 280.53c.06 2.5.92 5.09-.81 7.39a16.57 16.57 0 01.81-7.39z"/><path class="cls-52" d="M289.51 129.95a4.71 4.71 0 00-.84.11c-.1-1.15-.17-2.29.9-3.1z"/><path class="cls-139" d="M295.46 291.33c-.6 1.8-1.6 1.84-2.89.65z"/><path class="cls-4" d="M167 64.78l6.58.28c-3.45 1.94-7.1.32-11.37 1.15 1.88-1.8 3.47-.96 4.79-1.43z"/><path d="M360.63 188.99c-1.22-.76-1-2.06-1.21-3.22l.93-2.17c.4.78.79 1.57 1.18 2.35a4.18 4.18 0 01-.9 3.04z" fill="#93929a"/><path d="M378.53 187.94c0 8.14-.69 16.1-6 22.84l-3 1.36-3-.12a9.81 9.81 0 01-5.06-7c0-1.37 0-2.75.07-4.12h1c.63.62 1.27 1.06 2.08.26 2.5-2.47 3.58-11.17 1.71-14.09-.81-1.28-1.75-1.33-2.74-.16l-1-2c1-5.32 4.36-8 9.88-7.93 3.94 2.65 4.74 6.92 6.06 10.96zm-2.77 6.27c0-5.38.13-9.59-2.59-13.15-1.27-1.65-2.84-2.23-4.76-1s-1.88 2.46-.78 4.54c3.4 6.42 2.83 12.83-1.48 18.66-1.58 2.14-1.87 3.86.14 5.56 2.29 1.94 4 .47 5.43-1.33a20.34 20.34 0 004.04-13.28z" fill="#191918"/><path class="cls-148" d="M362.53 184.95l1 2c-.58 4.64-1.3 9.28-1.05 14h-1c-.37-3 .89-6.09-.86-8.92v-3a4.18 4.18 0 00.9-3z"/><path d="M212.33 297.1c-5.45 1.67-11 .37-16.55.76-1.79.13-3.6.14-5.41.2l-2.79-.09c4.35-2.12 9-.66 13.46-.94 3.75-.23 7.53.02 11.29.07z" fill="#020504"/><path class="cls-12" d="M247.56 383.89c1.6 1.7 1 3.67.81 5.79-1.41-1.23-.39-2.77-.9-4z"/><path class="cls-84" d="M256.6 505.83c-.44.87-.93 1.72-1.32 2.61-.87 2-2.22 3.35-4.45 3.4-2.46 0-3.3-1.87-4.05-3.76a15.76 15.76 0 01-.05-12.08 4.55 4.55 0 014.57-3.15c2.2 0 3.28 1.5 3.85 3.31a24.45 24.45 0 011.4 9.75zm-8.19-3.88c.26 2.57-.17 6.42 2.42 6.4 3 0 2.56-3.91 2.59-6.38 0-2.19.38-5.72-2.27-5.75-3.2-.03-2.19 3.67-2.74 5.73z"/><path d="M374.53 641.75c-.12 12.93-3.2 25.26-7.61 37.33-2.23 6.07-6.76 10.37-11.52 14.16-6.39 5.09-11.87 11.11-18 16.48-14.33 12.6-28 26-42.12 38.8-14.74 13.37-29.74 26.46-44.61 39.68-1.16 1-2.42 2.13-4 1.24-1.75-1-2-3-2.08-4.82a96.44 96.44 0 012-23.73c1.55-8.13 2.74-16.38 6.32-24 3.41-7.25 10.27-11.21 15.77-16.34 10.9-10.16 22.53-19.54 33.84-29.28q25.05-21.57 50.06-43.22c4.89-4.25 9.56-8.74 14.3-13.15 1.7-1.58 3.22-3.8 5.9-2.83s1.33 3.72 1.62 5.69a29.48 29.48 0 01.13 3.99zm-32.81 20.14c-2.27 1.3-1.91 3.78-2.48 5.8-1.32-.14-.05-3.67-2.67-1.91-.85.56-2 1.27-1.75 2.26 1.47 7 .43 13.84-1.19 20.68-.58 2.43.88 3.23 3.14 3.18a11.35 11.35 0 004.71-1.47c13.42-6.48 24.43-30.37 21.44-46.65a9.4 9.4 0 00-5.22 3.51c-1.32 1.54-4.51 2.56-2.16 5.58-.09 1.4.32 2.94-1.06 4-1.4-4.89-3.64-4.28-6.56-1.15-1.99 2.13-4.57 3.67-6.2 6.17zm-29.18 41l4.66-4.17a2.65 2.65 0 002.23-3.16c0-1.51.91-2.64 1.65-3.83 2-.89 1.38-2.63 1.35-4.18 0-1 0-2-.13-3-.17-1.46-.15-3.2-1.72-3.85s-2.27 1-3.24 1.77c-2.05 1.66-4.05 3.38-6 5.14-4.86 4.35-5.66 8.86-2.74 15 1.24 1.67 2.56 1.53 3.94.28zm-5 2c-1.29-.63-1.71-2-2.48-3-1.42-2 1-5.85-2-6.15-1.77-.18-3.84 2.78-5.77 4.32-.13.11-.28.19-.41.29-3 2.42-2.3 17.89 1 19.9a10.38 10.38 0 003.73 1.34c2.77.43 5.2-.85 7.59-2 7.25-3.47 11.67-9.71 15.48-16.39 5.11-8.94 8.07-18.54 7.87-28.95 0-1.12.6-3-1.65-2.8-3.41.29-7.26 6.34-6.43 9.64a13.69 13.69 0 01.46 6.82 28.83 28.83 0 01-11.26 17zm64.14-68.56c-4.69 2.19-5.32 5.33-5.16 9.09a54.76 54.76 0 01-12.11 37.55c-5.13 6.42-10.74 12.47-20.12 11.9-2.34-.14-3.1 1.58-3.87 3.27-2.47 5.48-5.28 10.82-9.3 15.29-6.08 6.76-12.5 13.22-23 10.76-2.87-.67-3.26 1.3-3.72 3.41-2.33 10.8-7.6 20.08-14.66 28.47-7.21 8.57-17.3 10.78-26.92 5.6-2.19-1.17-2.94-.47-3.28 1.76-.94 6.23-2 12.44-1.95 18.76 0 1.09-.44 2.57 1 3 1 .34 1.72-.75 2.46-1.4 8.22-7.23 16.57-14.32 24.64-21.71 18.12-16.61 36.08-33.39 54.16-50 5.24-4.83 11-9.13 15.93-14.26 5.18-5.38 12.36-9 15.91-15.64 7.48-14.08 9.72-29.46 9.96-45.86zm-105.7 91.77c-9.81 5.49-12.89 14.26-14.31 23.9-.51 3.45 1.12 6.08 4.13 7.89 5.71 3.43 12.24 2.31 18.27-3 10-8.84 15.68-20.18 18.13-33.06.88-4.66.45-9.63.19-14.44-.19-3.25-1.76-4.07-4.41-1.46-2.8 2.77-5.83 5.31-9.08 8.23 4.47 1.59 6.72 4.78 6.48 8.82-.48 7.95-3.5 14.93-10.36 19.55-4.89 3.29-9.51 1-10.68-4.88-.81-3.89.89-7.43 1.61-11.56zm16.5-1.68c0-2.89-.05-5.14-2.27-6.37-1.83-1-3.65-.32-5.1.87a22.14 22.14 0 00-8.36 17.35 4.49 4.49 0 002.5 4.54c1.87.84 3.61.12 5.08-1.1a22.77 22.77 0 008.08-15.3z" fill="#0f0f11"/><path class="cls-14" d="M127.55 384.75c.06-1.26.12-2.52.19-3.78a4 4 0 01.66 4.43c-.4.99-.6-.32-.85-.65zm-.99 6.06c0-1 .09-1.92.13-2.88.72 1 1.82 2.01-.13 2.88zm1.85-11.93l.24-3.94c1.29 1.39 1.39 2.69-.24 3.94z"/><path d="M132.67 334.9l1.12-1.22a8.4 8.4 0 012 4l-1.1 2.17z" fill="#909097"/><path d="M116.46 341.63a3.27 3.27 0 001.38 2.4 67.61 67.61 0 00-.14 13.79c-.14 1.09 0 2.28-1 3.09a29.69 29.69 0 01-.24-19.28z" fill="#8c8b93"/><path d="M104.21 503.74c.65 1.34.57 3-.53 3.1-1.77.15-.62-1.3-.42-2.05.15-.38.58-.66.95-1.05z" fill="#303234"/><path d="M117.7 357.79a67.61 67.61 0 01.14-13.79 64.47 64.47 0 013-7.21c3.14-5.62 6.83-6.13 11.81-1.89l2.05 5c1.67 8.84 1.31 17.34-4.16 25-5.47 3.88-9 2.83-11.53-3.44-.46-1.23-.87-2.46-1.31-3.67zm15.72-10c-.36-3.49-.64-7.17-2.36-10.48-1.23-2.36-3.23-3.45-5.78-2s-1.12 3-.22 5a17 17 0 01-1.19 17.52c-1.56 2.32-3 4.26-.12 6.22 3.21 2.19 5-.4 6.32-2.67 2.44-4.06 2.89-8.75 3.34-13.54zm-13 9.42c4.63-4.75 5.08-11.23 1.37-16.23-2.31 5.2-2.59 10.27-1.38 16.28z" fill="#181816"/><path class="cls-155" d="M254.07 290.82a69.69 69.69 0 0114.78 1l-2.6.36c-3.56.19-7.23-1.2-10.67.77h-2c-3-1.85-6.28-.66-9.43-.84a370 370 0 01-39.88-3.94c2.12-.61 4.6.58 6.47-1.29l27.7 2.22 4.15 1c3.71 1.69 7.64.53 11.48.72z"/><path d="M266.25 292.15l2.6-.36 12.49.29 4.22.91c-4 2-8.28.32-12.38 1.05-5 0-9.95.16-14.85-1 2.59-.7 5.43.67 7.92-.89z" fill="#141718"/><path class="cls-15" d="M210.73 286.82c-1.87 1.87-4.35.68-6.47 1.29l-12.67-1.26c-2.62-1.76-5.51-.73-8.29-.8l-2.66-.17c3.56-2.11 7.51-.24 11.19-1.08a.58.58 0 01.77.07c2.24 1.87 4.83.86 7.29.89l1.71.21c2.89 1.77 6.05.76 9.1.87z"/><path class="cls-139" d="M273.18 294.04c4.1-.73 8.4.95 12.38-1.05 1-.32 2.16.05 2.87-1l.19-.11c1.69 1.75-.83 2-1.08 3.12-4.81-.01-9.63.17-14.36-.96z"/><path class="cls-115" d="M335.59 328.91c.6.8.65 1.79-.45 1.8-4.53 0-9.14 1.14-13.57-.74 4.62-.99 9.53 1.66 14.02-1.06z"/><path d="M266.25 292.15c-2.49 1.56-5.33.19-7.92.91l-2.75-.14c3.44-1.97 7.11-.58 10.67-.77z" fill="#060706"/><path class="cls-158" d="M244.14 292.05c3.15.18 6.42-1 9.43.84-3.16.08-6.36.24-9.43-.84z"/><path class="cls-109" d="M183.3 286.05c2.78.07 5.67-1 8.29.8a21.52 21.52 0 01-8.29-.8z"/><path class="cls-139" d="M289.14 295.04c2.16.21 4.61-1.13 6.35 1.23z"/><path class="cls-115" d="M333.52 326.93a1.94 1.94 0 012.05 1.93z"/><path class="cls-141" d="M95.28 270.12l13.36-.19v.88c-4.46.09-8.93.21-13.36-.69z"/><path class="cls-158" d="M254.07 290.82c-3.84-.16-7.77 1-11.49-.81l5-.16z"/><path d="M207.61 278.91c2.8-1.88 5.85-.66 8.8-.71a2 2 0 01.13.67l-6.28.23z" fill="#070709"/><path class="cls-155" d="M210.7 286.84c-3-.11-6.21.9-9.1-.87l4-.18z"/><path class="cls-101" d="M288.41 292c-.71 1-1.91.67-2.87 1l-4.22-.91c1.39-.57 3.17.25 4.29-1.23z"/><path d="M175.61 274.91l8.53.32c-2.12 1.38-4.58 0-6.76.86l-1.76-.16z" fill="#050607"/><path d="M163.63 274.9c2.39-1.79 5-.63 7.58-.32l-4.87.52z" fill="#060608"/><path d="M151.64 273.9c2.37-1.92 5-.42 7.58-.31l-4.86.5z" fill="#060809"/><path class="cls-101" d="M247.58 289.85l-5 .16-4.15-1c3.09-.07 6.22-.75 9.15.84z"/><path class="cls-111" d="M86.58 268.74c1.38.31 3-.16 4.07 1.13a21 21 0 01-8.27-.79z"/><path class="cls-136" d="M232.06 281.02c2.85.23 5.85-1 8.53.9a22.57 22.57 0 01-8.53-.9z"/><path class="cls-109" d="M199.89 285.76c-2.46 0-5 1-7.29-.89l6.81.19z"/><path class="cls-136" d="M210.26 279.1l6.28-.23 1.05 1a17.52 17.52 0 01-7.33-.77zm10.78.9c2.52.21 5.18-.87 7.53.84-2.55.1-5.1.18-7.53-.84z"/><path class="cls-142" d="M243.1 282.08c2.51 0 5.13-.9 7.47.77a17.84 17.84 0 01-7.47-.77z"/><path class="cls-101" d="M199.89 285.76l-.48-.7c2.12-.18 4.27-.69 6.2.73l-4 .18z"/><path d="M329.07 531.18c4.19-.42 7.81-.82 11.43-1.14 2.67-.24 4.14.85 3.89 3.73s-1.82 2.9-4.2 2.59c-4.11-.55-8.24-.73-11.12-5.18z" fill="#3d4751"/><path class="cls-119" d="M347.41 529.55c-.22 4.12 1.21 8.36-.91 12.33l.15-11z"/><path class="cls-29" d="M346.41 514.68a1.34 1.34 0 01.12-.79c.64.57 1.28 1.14.49 2z"/><path d="M360.54 512.87c2.4 1.83 2.34 4.32 1.86 6.93-1.32 1.21-2.64 2.57-4.65 1.47s-2.49-3.2-2.25-5.42c1.34-1.56 2.43-3.55 5.04-2.98zm-1.76 5.48c1.12 0 1.43-.61 1.41-1.28a1.61 1.61 0 00-.59-1.22c-.8-.44-1.2.22-1.24.87a5.59 5.59 0 00.42 1.63z" fill="#222227"/><path d="M337.54 563.9c-3.56 2-7.4.78-11.09.9-6.07.2-12.16 0-18.24-.06 9.75-1.2 19.55-.55 29.33-.84zm-3 2.94h-29c2.88-1.87 6.08-.84 9.12-.89 7.4-.12 14.8.06 22.2.13a7.73 7.73 0 00-.73.67z" fill="#26252b"/><path class="cls-119" d="M336.16 566.73a7.73 7.73 0 01.73-.67h4.69c-1.66 1.28-3.57.75-5.42.67zm10.25-22.35c-.2 3.84 1.11 7.8-.91 11.49.03-3.85-.3-7.74.91-11.49zm-1 14.14c0 1.83.87 3.87-1.13 5.29.4-1.77.77-3.53 1.13-5.29z"/><path class="cls-57" d="M321.68 202.91c-1.89-1.74-1-4-1.06-6 1.17 1.83.85 3.96 1.06 6z"/><path d="M360.66 192.03c1.75 2.83.49 5.95.86 8.92h-.92a28.2 28.2 0 01.06-8.92z" fill="#15100f"/><path class="cls-148" d="M360.62 200.92h.92c0 1.37-.05 2.75-.07 4.12a5.74 5.74 0 01-.85-4.12z"/><path class="cls-131" d="M366.53 212.02l3 .12a1.87 1.87 0 01-3-.12z"/><path d="M386.65 370.14c-.93 3.74-3.57 6.22-6.3 8.63-5.15 1.26-7.64-1.41-9-6-1.8-6.12 0-12 1-17.94 1.61-3 3-6.11 5.56-8.44 3.62-3.29 6.52-2.93 9.72 1.08l-1.1 2.39c-1.31-2.09-2.79-3.87-5.61-2.55-3.4 1.58-1 3.62-.57 5.72 1.4 6.33.44 12.25-4.45 16.91-2 1.87-2.33 3.45-.48 5.43 2 2.18 3.78 1.19 5.55-.42 2.15-2 3.14-4.63 4.51-7.08zm-13.38-.81c4.55-4.83 5.61-9.41 5.09-14.52-.09-.81-.34-1.76-1.37-1.75s-1.26.94-1.57 1.71c-1.73 4.18-2.45 8.53-2.15 14.56z" fill="#1a1917"/><path d="M386.65 370.14l-1.11-2.23c1.46-5.94 2.74-11.89 1.05-18l1.1-2.39c1.27 1.16 1.55 2.77 2 4.32-.28 6.23.64 12.64-3.04 18.3z" fill="#222323"/><path d="M213.72 174.54c-.42 15.21-7.48 34.43-24.58 49.69s-35.81 15-54.49 4.89c-21.85-11.85-31.72-31.23-33-55.62-.65-12.55 1.89-24.51 5.75-36.26 6.59-20.08 30.71-37.86 50.85-37.38 15.79.37 27.59 8.81 37.66 20 10.63 11.87 17.92 31.77 17.81 54.68zm-54.58 52.64c16.75 0 28.42-9.47 36.87-22.27 16.67-25.25 13-63.62-10.74-83.85-9-7.7-19.4-12.57-31.47-11.82-17.94 1.11-37.95 17.43-43.32 34.67a88.92 88.92 0 00-4 34.42c2.22 26.12 26.5 48.96 52.66 48.85z" fill="#5a6365"/><path d="M221.57 128.01c7.35 8.67 10.77 18.89 12 30.05a121.86 121.86 0 01.23 28.82c-1.31 10.73-6.9 19.27-13.21 27.53-1.11 1.45-2.06 3-3.08 4.52-9.42 12.9-22.91 16.73-38 17.05a29.48 29.48 0 01-2.95-.3 69.52 69.52 0 0025.85-22.05c8.74-12 12.63-25.73 14.24-40.38 1.63-14.9-3.24-28.15-9.15-41.28 2.94 1.45 6.09 1.13 9.15.85 2.76-.19 5.16-1.3 4.92-4.81z" fill="#3c484b"/><path d="M221.57 128.01c.24 3.51-2.19 4.59-4.92 4.84-3.06.28-6.21.6-9.15-.85a80 80 0 00-17.7-22c7.25.7 12.36 3 17.55 5.1 4.55 4.53 10.06 7.93 14.22 12.91z" fill="#4f6065"/><path d="M375.76 194.21a20.34 20.34 0 01-4 13.32c-1.41 1.8-3.14 3.27-5.43 1.33-2-1.7-1.72-3.42-.14-5.56 4.31-5.83 4.88-12.24 1.48-18.66-1.1-2.08-1.1-3.28.78-4.54s3.49-.69 4.76 1c2.68 3.53 2.51 7.73 2.55 13.11z" fill="#6e7262"/><path d="M362.52 200.94c-.25-4.71.47-9.35 1.05-14 1-1.17 1.93-1.12 2.74.16 1.87 2.92.79 11.62-1.71 14.09-.81.81-1.45.37-2.08-.25z" fill="#978f60"/><path d="M248.41 501.95c.52-2.06-.49-5.76 2.74-5.73 2.65 0 2.29 3.56 2.27 5.75 0 2.47.45 6.36-2.59 6.38-2.56.02-2.13-3.83-2.42-6.4z" fill="#5c6871"/><path class="cls-74" d="M371.65 636.32c-.29 16.4-2.48 31.78-9.94 45.85-3.55 6.68-10.73 10.26-15.91 15.64-4.92 5.13-10.69 9.43-15.93 14.26-18.08 16.65-36 33.43-54.16 50-8.07 7.39-16.42 14.48-24.64 21.71-.74.65-1.42 1.74-2.46 1.4-1.45-.46-1-1.94-1-3-.05-6.32 1-12.53 1.95-18.76.34-2.23 1.09-2.93 3.28-1.76 9.62 5.18 19.71 3 26.92-5.6 7.06-8.39 12.33-17.67 14.66-28.47.46-2.11.85-4.08 3.72-3.41 10.48 2.46 16.9-4 23-10.76 4-4.47 6.83-9.81 9.3-15.29.77-1.69 1.53-3.41 3.87-3.27 9.38.57 15-5.48 20.12-11.9a54.76 54.76 0 0012.09-37.56c-.19-3.77.44-6.89 5.13-9.08z"/><path d="M265.95 728.09c-.72 4.13-2.42 7.67-1.64 11.57 1.17 5.88 5.79 8.17 10.68 4.88 6.86-4.62 9.88-11.6 10.36-19.55.24-4-2-7.23-6.48-8.82 3.25-2.92 6.28-5.46 9.08-8.23 2.65-2.61 4.22-1.79 4.41 1.46.26 4.81.69 9.78-.19 14.44-2.45 12.88-8.09 24.22-18.13 33.06-6 5.29-12.56 6.41-18.27 3-3-1.81-4.64-4.44-4.13-7.89 1.42-9.66 4.5-18.38 14.31-23.92zm47.63-23.22a28.83 28.83 0 0011.26-17 13.69 13.69 0 00-.46-6.82c-.83-3.3 3-9.35 6.43-9.64 2.25-.19 1.63 1.68 1.65 2.8.2 10.41-2.76 20-7.87 28.95-3.81 6.68-8.23 12.92-15.48 16.39-2.39 1.15-4.82 2.43-7.59 2a10.38 10.38 0 01-3.73-1.34c-3.27-2-4-17.48-1-19.9.13-.1.28-.18.41-.29 1.93-1.54 4-4.5 5.77-4.32 3.06.3.61 4.18 2 6.15.77 1.07 1.19 2.39 2.48 3a4.88 4.88 0 006.13.02z" fill="#393f45"/><path d="M355.54 652.87c-2.35-3 .84-4 2.16-5.58a9.4 9.4 0 015.22-3.51c3 16.28-8 40.17-21.44 46.65a11.35 11.35 0 01-4.71 1.47c-2.26.05-3.72-.75-3.14-3.18 1.62-6.84 2.66-13.66 1.19-20.68-.21-1 .9-1.7 1.75-2.26 1.62 1.69.71 3.81 1 5.73.64 4.72 3.7 6.84 8 5.48 7.97-2.51 13.75-16.48 9.97-24.12z" fill="#383e45"/><path d="M282.41 726.41a22.77 22.77 0 01-8.15 15.29c-1.47 1.22-3.21 1.94-5.08 1.1a4.49 4.49 0 01-2.5-4.54 22.14 22.14 0 018.36-17.35c1.45-1.19 3.27-1.89 5.1-.87 2.27 1.23 2.32 3.48 2.27 6.37z" fill="#ac8450"/><path d="M321.08 691.73c-.74 1.19-1.63 2.32-1.65 3.83-.74 1.06-1.49 2.11-2.23 3.16l-4.66 4.17-3.95-.2c-2.92-6.18-2.12-10.69 2.74-15 2-1.76 4-3.48 6-5.14 1-.78 1.74-2.39 3.24-1.77s1.55 2.39 1.72 3.85c.11 1 .09 2 .13 3zm20.64-29.84c1.63-2.5 4.21-4 6.2-6.17 2.92-3.13 5.16-3.74 6.56 1.15-.3 1.63-.51 3.29-.91 4.9a20.43 20.43 0 01-6.81 11.32c-1.29 1-2.8 2-4.56 1-1.51-.83-1.63-2.37-1.79-3.88-.31-2.9 1-5.58 1.31-8.32z" fill="#ab8350"/><path d="M341.72 661.89c-.36 2.78-1.62 5.42-1.31 8.32.16 1.51.28 3 1.79 3.88 1.76 1 3.27 0 4.56-1a20.43 20.43 0 006.81-11.32c.4-1.61.61-3.27.91-4.9 1.38-1.06 1-2.6 1.06-4 3.78 7.64-2 21.61-10 24.12-4.33 1.36-7.39-.76-8-5.48-.26-1.92.65-4-1-5.73 2.62-1.76 1.35 1.77 2.67 1.91.6-2.06.2-4.5 2.51-5.8z" fill="#191513"/><path d="M313.58 704.87a4.88 4.88 0 01-6.07 0zm-4.99-2.18l3.95.2c-1.38 1.25-2.7 1.39-3.95-.2zm12.49-10.96l1.35-4.18c.03 1.55.65 3.29-1.35 4.18zm-3.88 6.99c.74-1.05 1.49-2.1 2.23-3.16a2.65 2.65 0 01-2.23 3.16z" fill="#1d1816"/><path d="M133.41 347.84c-.46 4.8-.91 9.48-3.35 13.57-1.36 2.27-3.11 4.86-6.32 2.67-2.87-2-1.44-3.9.12-6.22a17 17 0 001.19-17.52c-.9-1.93-2.32-3.51.22-5s4.55-.37 5.78 2c1.73 3.29 2.01 7.01 2.36 10.5z" fill="#6e7260"/><path d="M120.41 357.26c-1.24-6-1-11.08 1.37-16.23 3.74 5 3.29 11.48-1.37 16.23z" fill="#a39958"/><path d="M358.78 518.35a5.59 5.59 0 01-.42-1.63c0-.65.44-1.31 1.24-.87a1.61 1.61 0 01.59 1.22c.02.67-.29 1.26-1.41 1.28z" fill="#86858f"/><path d="M386.59 349.9c1.69 6.12.41 12.07-1.05 18-1.37 2.45-2.36 5.12-4.51 7.08-1.77 1.61-3.53 2.6-5.55.42-1.85-2-1.49-3.56.48-5.43 4.89-4.66 5.85-10.58 4.45-16.91-.47-2.1-2.83-4.14.57-5.72 2.82-1.31 4.3.47 5.61 2.56z" fill="#6e7261"/><path d="M373.27 369.33c-.3-6 .42-10.38 2.15-14.56.31-.77.61-1.7 1.57-1.71s1.28.94 1.37 1.75c.52 5.11-.54 9.69-5.09 14.52z" fill="#9f965f"/><path d="M159.14 227.18c-26.16.11-50.44-22.73-52.67-48.85a88.92 88.92 0 014-34.42c5.37-17.24 25.38-33.56 43.32-34.67 12.07-.75 22.44 4.12 31.47 11.82 23.74 20.23 27.41 58.6 10.74 83.85-8.44 12.8-20.11 22.29-36.86 22.27zm-40.39-25.33c1.2 3.88 3.91 6.61 6.94 9.08 1.6 2.13 3.87 3.44 6 4.92a2.28 2.28 0 00.76.26c18.51 12.29 35.09 11.88 51.78-1.68 10.28-8.34 15.67-19.61 17.88-32.46 4.18-24.25-1.41-45.49-21.29-61-27.43-21.43-55.58-1.7-66.13 20-3.74 10.35-6.94 20.84-5.88 32 .8 8.37 1.25 16.91 6.85 23.93l.95 2.05a2.64 2.64 0 002.14 2.9z" fill="#0f1114"/><path d="M131.68 215.84c-2.13-1.48-4.4-2.79-6-4.92 3 .06 5.45-1.45 7.91-2.68 6.93-3.47 6.8-3.56 3.34-10.74-4.95-10.29-10.19-20.54-9.23-32.49.46-5.74 1.23-11.46 1.87-17.18a15.48 15.48 0 015.84-7.2 5.8 5.8 0 001.48-8.37c-2.15-3.18-4.84-.51-6.76 1-3 2.37-5.56 5.18-8.31 7.8-2.36-.53-4.72-1.82-7.1-.06 10.55-21.72 38.7-41.45 66.13-20 19.88 15.52 25.47 36.76 21.29 61-2.21 12.85-7.6 24.12-17.88 32.46-16.69 13.56-33.27 14-51.77 1.68 3.89-1.09 7.26-3.2 10.58-5.41.55-.37 1.15-.81.8-1.6s-1.08-1.14-1.61-.74c-3.49 2.55-8.63 2.77-10.58 7.45zm4.86-43.32v3.49c.26 13.54 9.3 25.3 22.76 29.62 12 3.87 23.67-.07 32.13-10.88 10-12.76 10.73-32.09 1.79-46.43-6.94-11.13-20.9-16.75-32.27-13-15.47 5.12-24.48 18.84-24.41 37.2z" fill="#3d4c57"/><path class="cls-188" d="M114.68 140.97c2.38-1.76 4.74-.47 7.1.06-.72 1.11-1.42 2.22-2.16 3.31a28.83 28.83 0 00-5 21.28c.45 2.89 1.24 5.87 4.89 5.82 3.3 0 5-2.22 5.34-5.47.17-1.65.45-3.29.74-4.92.81-4.55 1.46-9.16 3.93-13.22-.64 5.72-1.41 11.44-1.87 17.18-1 12 4.28 22.2 9.23 32.49 3.46 7.18 3.59 7.27-3.34 10.74-2.46 1.23-4.95 2.74-7.91 2.68-3-2.47-5.73-5.2-6.93-9.08 4.76.9 6.2-2.11 6.62-5.9.56-5.07-2.13-10.11-5.43-10.58-2.79-.41-4 1.32-4.24 3.69-.23 2.61 0 5.26 0 7.89-5.6-7-6.05-15.56-6.85-23.93-1.06-11.2 2.14-21.69 5.88-32.04z"/><path d="M115.65 196.94c0-2.63-.19-5.28 0-7.89.21-2.37 1.45-4.1 4.24-3.69 3.3.47 6 5.51 5.43 10.58-.42 3.79-1.86 6.8-6.62 5.9a3.53 3.53 0 00-2.15-2.86z" fill="#d6e4e6"/><path d="M131.68 215.84c1.95-4.68 7.09-4.9 10.54-7.49.53-.4 1.3.08 1.61.74s-.25 1.23-.8 1.6c-3.32 2.21-6.69 4.32-10.58 5.41a2.26 2.26 0 01-.77-.26z" fill="#53626d"/><path class="cls-188" d="M116.6 198.99a3.53 3.53 0 012.15 2.86 2.64 2.64 0 01-2.15-2.86z"/><path d="M136.54 172.52c-.07-18.36 8.94-32.08 24.41-37.19 11.37-3.76 25.33 1.86 32.27 13 8.94 14.3 8.19 33.66-1.81 46.42-8.46 10.81-20.09 14.75-32.13 10.88-13.46-4.32-22.5-16.08-22.76-29.62 0-1.16.02-2.33.02-3.49zm3.1 1.19c-1.35 7.76 2.09 15.23 7.84 21.25 9.07 9.51 22.65 13.47 34.17 5.15 18.9-13.67 20.56-42.82 1.66-57.8-6.54-5.17-14.29-7.67-22.4-3.92-14.23 6.56-21.62 15.83-21.27 35.32z" fill="#0f1013"/><path d="M129.56 147.83c-2.47 4.06-3.12 8.67-3.93 13.22-.29 1.63-.57 3.27-.74 4.92-.35 3.25-2 5.43-5.34 5.47-3.65.05-4.44-2.93-4.89-5.82a28.83 28.83 0 015-21.28c.74-1.09 1.44-2.2 2.16-3.31 2.75-2.62 5.36-5.43 8.31-7.8 1.92-1.53 4.61-4.2 6.76-1a5.8 5.8 0 01-1.48 8.4 15.48 15.48 0 00-5.85 7.2z" fill="#d8e6e7"/><path d="M139.64 173.71c-.35-19.49 7-28.76 21.27-35.32 8.11-3.75 15.86-1.25 22.4 3.92 18.9 15 17.24 44.13-1.66 57.8-11.52 8.32-25.1 4.36-34.17-5.15-5.75-6.02-9.19-13.49-7.84-21.25zm49.77-2.73a66.08 66.08 0 00-1-7.24c-1.38-6-6.06-9.92-12.33-10.69s-11 1.46-14 7.27a23.84 23.84 0 00-.83 21.19c2.57 5.89 9.45 9.23 16.16 8.2 6.43-1 10.4-5.17 11.36-12.08.32-2 .4-4 .64-6.65z" fill="#1a2123"/><path d="M189.41 170.98c-.22 2.68-.3 4.68-.58 6.65-1 6.91-4.93 11.09-11.36 12.08-6.71 1-13.59-2.31-16.16-8.2a23.84 23.84 0 01.83-21.19c3-5.81 7.59-8.05 14-7.27s10.95 4.7 12.33 10.69a66.08 66.08 0 01.94 7.24z" fill="#b3e6e7"/></svg>